<?xml version="1.0" encoding="utf-8"?>
<!-- Generator: Adobe Illustrator 17.0.0, SVG Export Plug-In . SVG Version: 6.00 Build 0)  -->
<!DOCTYPE svg PUBLIC "-//W3C//DTD SVG 1.1//EN" "http://www.w3.org/Graphics/SVG/1.1/DTD/svg11.dtd">
<svg version="1.1" id="Calque_1" xmlns="http://www.w3.org/2000/svg" xmlns:xlink="http://www.w3.org/1999/xlink" x="0px" y="0px"
	 width="340px" height="509px" viewBox="0 0 340 509" enable-background="new 0 0 340 509" xml:space="preserve">
<path fill="#CFD3DA" d="M0,0.73c2.24,4.06,6.84,8.83,4.84,13.6C3.22,12.09,1.61,9.85,0,7.61V0.73z"/>
<path fill="#858999" d="M0,7.61c1.61,2.24,3.22,4.48,4.84,6.72c2.22,3.93,4.28,7.94,6.51,11.86C5.9,25.66,4.28,15.19,0,11.59V7.61z"
	/>
<path fill="#DDE2F2" d="M0,11.59c4.28,3.6,5.9,14.07,11.35,14.6c4.23,6.78,8.26,13.68,12.13,20.67c-0.42,2.34,1.11,4.29,2.46,6.03
	c0.33,0.5,0.99,1.49,1.31,1.99c-0.27,1.08-0.55,2.16-0.85,3.24c-1.14-2.26-2.56-4.37-4.12-6.36C15.31,39.1,8.29,26.33,0,14.51V11.59
	z"/>
<path fill="#AEB3C0" d="M0,14.51C8.29,26.33,15.31,39.1,22.28,51.76c-0.14,0.6-0.41,1.81-0.55,2.41C14.19,42.46,8,29.87,0,18.48
	V14.51z"/>
<path fill="#E2E8F7" d="M0,18.48c8,11.39,14.19,23.98,21.73,35.69c9.9,18.87,21.01,37.09,31.53,55.6c-1.03,0.45-2.07,0.89-3.11,1.32
	c-0.89-1.46-1.81-2.91-2.74-4.34c-6.32-12.04-13.46-23.63-20.65-35.17c-2.06-4.04-4.09-8.13-6.8-11.78
	c-0.03,2.91,1.14,5.59,2.04,8.3C14.51,59.9,8.38,50.62,3.14,40.89c-1.88-2.8-0.35,2.22-0.4,3.37C1.82,43.07,0.9,41.88,0,40.68V18.48
	z"/>
<path fill="#A2A0A6" d="M13.19,24.33C17.59,24.79,12.32,29,13.19,24.33z"/>
<path fill="#96969A" d="M16.02,28.89c3.75,0.12,3.45,5.67,5.02,8.19C18.35,35.39,17.52,31.65,16.02,28.89z"/>
<path fill="#ACACB0" d="M22.25,39.32C26.79,40.77,21.38,44.9,22.25,39.32z"/>
<path fill="#ADB5CE" d="M2.74,44.26c0.05-1.15-1.48-6.17,0.4-3.37C8.38,50.62,14.51,59.9,22,68.1c-0.9-2.71-2.07-5.39-2.04-8.3
	c2.71,3.65,4.74,7.74,6.8,11.78c0.27,8.19,9.41,13.67,9.57,21.7c-3.62-5.71-7.22-11.45-10.37-17.43c-0.99-3.82-5.32-4.56-7.02-7.81
	c-0.97-1.33-3.36-4.96-3.03-1.12C11.01,59.69,7.34,51.69,2.74,44.26z"/>
<path fill="#A6A9B5" d="M25.94,52.89c-1.35-1.74-2.88-3.69-2.46-6.03c2.12,2.45,4.34,4.52,2.83-0.1c4.17,0.97,7.85,4.8,2.5,7.23
	C27.74,52.82,25.6,49.13,25.94,52.89z"/>
<path fill="#1B1718" d="M142.27,52.23c3.55-1.81,7.18-3.59,10.84-5.18c4.76,0.26,9.16,3.49,14.07,2.39
	c6.65-1.56,15.27,0.5,18.33,7.18c2.27,2.2,6.12-4.37,6.06,1.76c0.07,5.58,5.49,7.39,7.44,11.62c-7.25-0.89-18.91-12.83-22.94-1.33
	c2.87,0.79,6.78,0.96,8.26,3.98c-3,0.05-8.72-2.64-7.2,2.03c1.53-1.12,10.71,2.71,4.73,3.18c-4.23,2.53-7.65-4.28-11.75-0.63
	c2.28,7.85,12.82,10.43,14.88,18.84c-1.94-1.17-3.94-2.24-5.99-3.2c-0.24-0.2-0.73-0.6-0.97-0.81c-0.65-3.32-4.53-4.48-6.99-6.13
	c-4.1-2-7.9-5.33-12.77-4.84c-0.91,2.27-1.29,4.73-2.42,6.92c-6.39-1.27-13.03-2.72-19,0.85c1.7-5.59,8.29-4.17,12.9-4.12
	c3.25-2.88,2.7-8.31,7.13-10.31c-2.98-0.37-3.37-3.49-4.53-5.7c3.88,8.61-12.89,6.94-7.21,0.22c4.49,2.89,4.4,0.67,1.66-2.92
	c-3.27,0.45-6.56,1.48-9.78,2.39c3.83,0.87-0.33,2.88-1.8,3.86c-2.59,2.18-5.42,4.01-8.14,6c-0.5,3.21,0.2,6.36,0.69,9.5
	c-4.1-1.42-6.36,1.11-8.25,3.87c-2.57-0.56-3.87-3.05-5.68-4.7c-5.16,0.26-1.32,9.06,2.73,9.42c-0.65,2.03-1.58,3.99-1.72,6.15
	c3.72-1.65,7.16,6.25,2.77,7.2c0.89,4.64-2.58,5.12-5.62,5.66c0.77,4.29,7.59,4.75,6.67,10.18c2.13,3.04,7.62,6.27,4.4,10.48
	c-2.02,2.64-7.59,3.45-9.24,0.08c2.91,0.63,8.11,0.92,4.9-4.77c-1.24-3.71-4.6,4.43-6.63,0.58c-1.31-2.2-2.67-1.72-3.76,0.44
	c-2.47-4.53-3.85-9.6-5.45-14.47c0.76-1.87,0.6-3.92-0.12-5.76c7.23-8.99,2.31-22.1,9.68-30.59c5.19-0.95,2.32-6.43,4.08-9.95
	c1.42-6.67,10.19-5.2,13.42-10.65C132.85,55.92,140.64,58.2,142.27,52.23z"/>
<path fill="#4C5467" d="M25.94,52.89c-0.34-3.76,1.8-0.07,2.87,1.1c0.3,0.45,0.91,1.34,1.21,1.78c0.87,1.68,1.84,3.31,2.93,4.85
	c6.2,12.58,14.78,23.8,21.14,36.3c0.41,1.19,0.96,2.33,1.83,3.26c2.29,4.31,4.22,8.82,6.63,13.07c0.96,1.78,2.03,3.5,3.18,5.16
	c1.76,3.65,3.78,7.18,6.14,10.47c0.58,1.06,1.14,2.12,1.73,3.16c0.74,1.36,1.54,2.68,2.33,4.02c0.95,1.74,1.91,3.48,2.94,5.18
	c1.69,2.99,3.46,5.96,5.25,8.91c8.03,11.08,12.7,24.86,21.97,34.79c0.7,5.4,3.53,10.25,6.45,14.74c-1.46,1.29-2.92,2.57-4.47,3.75
	l-0.62-0.63c-2.82-5.66-5.52-11.54-9.23-16.67c3.15-2.88-0.4-6.68-1.7-9.65c-2.59-1.94-0.04,2.82-1.53,3.97
	C84.7,164.6,75.82,147.9,66.23,131.63c-2.09-3.9-4.3-7.73-6.51-11.57c-0.62-5.88,5.58,5.4,3.82,0.37
	c-7.35-13.49-14.26-27.33-22.42-40.36c-4.66-8.37-9.29-16.77-13.87-25.19C26.93,54.38,26.27,53.39,25.94,52.89z"/>
<path fill="#6E778F" d="M22.28,51.76c1.56,1.99,2.98,4.1,4.12,6.36c4.79,7.99,8.94,16.39,14.32,24.01c0.1-0.51,0.3-1.54,0.4-2.06
	c8.16,13.03,15.07,26.87,22.42,40.36c1.76,5.03-4.44-6.25-3.82-0.37c-2.2-3.4-4.42-6.79-6.46-10.29
	c-10.52-18.51-21.63-36.73-31.53-55.6C21.87,53.57,22.14,52.36,22.28,51.76z"/>
<path fill="#9DA7C4" d="M27.25,54.88c4.58,8.42,9.21,16.82,13.87,25.19c-0.1,0.52-0.3,1.55-0.4,2.06
	c-5.38-7.62-9.53-16.02-14.32-24.01C26.7,57.04,26.98,55.96,27.25,54.88z"/>
<path fill="#B7BFD1" d="M30.02,55.77c2.14,0.61,4.24,2.49,2.93,4.85C31.86,59.08,30.89,57.45,30.02,55.77z"/>
<path fill="#0C0B0D" d="M176.07,68.67c4.03-11.5,15.69,0.44,22.94,1.33c2.48,3.64,8.07,5.07,7.81,10.99
	c2.07,5.91-0.5,11.68,2.87,17.26l0.06,0.83c-0.81,7.24-2.64,16.05,6.31,18.11c-0.03,0.64-0.09,1.91-0.12,2.55
	c-5.79,3.94-2.91,11.58-4.62,17.37c1.03,3.71,12.94,0.46,12.28,5.45c-3.37,1.58-5.23,8.17,0.14,7.37c1.79-8.1,10.72-3.45,16.78-3.29
	c4.9,3.88,14.65,2.96,16,9.99c2.66-1.49,18.76,4.26,6.96,2.72c-5.51-1.04-5.03,5.66-0.42,6.64c3.27-1.55,6.73-2.29,9.75,0.31
	c0.9,4.01-4.15,1.47-6.07,2.49c-5.5,5.32-14.07-3.04-19.76,2.34c3.17,7.51,16.07-1.6,17.31,7.69c0.68,4.95,11.65,5,6.84,10.29
	c1.57,3.68,9.74,3.44,7.03,9.07c-3.12,3.98,2.97,3.7,5.61,3.18c2.66,4.31,6.67,6.57,12.03,5.91c0.48,5.31,4.16,14.4-2.81,16
	c1.24,4.76,0.63,10.95,3.83,14.89c1.43-2.6,0.63-5.45,0.24-8.2c7.21-0.99-0.59,10.49,6.96,10.06c4.08-4.76-5.74-12.51-1.75-18.63
	c-0.28-3.23-0.56-10.79,4.73-9.77c2.92,4.42,8.21,8.35,7.34,14.33c-3.3,5.65,4.36,4.43,4.15,8.89c-1.07,2.62-2.9,1.44-4.63,0.27
	c-0.22,4.03,1.38,8.21,0.43,12.22c-3.91,8.05,7.22,13.88,8.43,20.33c-4.61,6.52-5.09-6.28-8.64-6.77c1.13,4.05,0.93,8.81,3.5,12.27
	c-0.49-6.65,7.86,2.73,8.83-3.75c-1.82-7.33-8.6-14.04-8.3-22.24c1.59-1.02,3.25-0.13,4.89,0.16c1.33,2.32,2.37,5.03,5.36,5.49
	c0.66,0.94,1.32,1.89,1.77,2.97c-0.18,7.08,3.33,13.45,4,20.42c-0.27,3.1,2.63,5.42,1.62,8.61c-2.41,4.65-1.28,9.58-0.44,14.38
	c-0.62,1.83-1.22,3.68-1.72,5.55c-0.68,1.28-0.87,2.75-0.62,4.17c-3.18,1-3.17,4.3-3.84,7.12c-1.67,1.59-1.98,5.02-3.94,5.79
	c-1.53-2.68-2.58-6.5-6.16-7c0.43,3.12,1.01,6.24,2,9.24c-0.31,2.42-3.65,1.5-4.35,3.67c-0.67,1.01-1.29,2.05-1.78,3.16
	c-2.16,5.83-2.55,12.3-1.33,18.4c0.36,7.99,2.52,15.73,3.47,23.65c-0.13,3.76,0.13,7.5,0.8,11.21c0.21,0.54,0.62,1.63,0.82,2.17
	c0.14,0.4,0.42,1.18,0.55,1.58c0.16,1.56,0.46,4.67,0.61,6.23c0.09,0.44,0.25,1.31,0.34,1.74c-0.54,1.4-0.66,3.23,0.78,4.15
	c-1.03,2.74-0.76,5.09,0.84,7.05c0.47,1.22,0.96,2.43,1.45,3.65c-0.14,6.49-0.22,13.01-0.49,19.51c-2.22-2.79,1.27-17.54-4.56-11.05
	c-3.71,7.07,3.55,17.61-1.3,24.31c-0.95-7.22-1.31-14.48-2.07-21.71c-0.53,4.81-3.27,1.59-5.75-0.03c0.48,4.87,1.47,9.65,2.14,14.49
	c-1.51-4.53-4.85-8.81-3.65-13.84c1.23-11.91-2.01-23.57-2.56-35.45c0.2-4.78-4.5,0.74-5.56,2.41c1.63,1.27,2.99,2.87,3.17,5.03
	c0.55,19.55,1.91,39.09,0.29,58.63c-0.44-0.04-1.33-0.11-1.78-0.15c-3.9-13.34-2.96-27.57-6.28-40.95c-2.73,2.39-5.84,4.72-7.25,8.2
	c-5.3-11.26-2.04-25.21-10.23-35.39c-1.85-1.91-1.21-6.61-4.26-6.64c-1.84,6.67,0.69,13.85,1.24,20.59
	c4.68,13.09,4.79,27.11,7.23,40.68c0.44,9.89-2.48,20.63,2.54,29.71c-9.88-0.46-3.33-14.81-7.06-18.87
	c-3.08,2.68-4.11,7.3-7.17,9.82c-5.32,0.79-6.18-6.43-6.57-10.11c-3.08-32.94-3.36-66.94-13.28-98.67c1.72,0.72,5.95-0.29,3.96-2.6
	c3.28-1.68,6.71-3.07,10.23-4.13c6.61,0.75,0.76,10.56,6.81,12.41c4.85,1.28,2.15,6.86,2.3,10.53c3.57,1.02,4.18,5.65,7.57,6.8
	c-1.93-11.43-0.96-22.99-2.57-34.39c-0.55-1.5,0.88-2.38,1.7-3.35c0.53,2.9,1.19,5.76,1.94,8.62c0.55,2.89-0.33,10.67,3.62,6.5
	c2.07-4.24,0.68,3.87,3.72,0.65c2-7.31-1.69-14.68-3.21-21.87c2.35-3.83-2.48-10.23-0.22-12.34c6.64,8.08,1.96,21.43,6.9,30.07
	c3.18-10.46,1.6-21.44-1.15-31.8c-1.08-3.19-6.69-3.51-5.9,0.7c-2.54-4.04-3.89-8.62-5.79-12.95
	c-4.31-24.97-17.71-47.26-23.17-71.94c-2.73-7.46-6.49-14.52-8.72-22.18c-0.56-2.72-3.51-8.78-7.19-6.13
	c-3.23,2.7,6.15,12.02-0.71,11.18c-0.36-0.56-1.07-1.68-1.42-2.24c-1.41-2.28-4.48-4.07-3.17-7.15c1.02-5.52-8.15-7.33-9.99-2.21
	c-0.84,4.01-6.11,7.47-7.87,2.09c-4.79,1.07-6.5-5.36-1.36-6.21c4.41-3.11-1.96-1.21-3.99-2.55c-2.51-3.21-4.62-6.73-6.53-10.32
	c3.62,1.09,7.66-1.65,10.88,0.86c3.21,2.1,3.91,6.94,7.17,8.65c5.41-4.2-5.79-6.62-1.56-9.76c5.86-0.38,11.73-0.01,17.6-0.22
	c-0.05-5.03-5.02-3.71-8.7-4.15c-0.9-4.03-3.08-9.17-7.84-9.71c-1.5,3.3-2.65,7.48-6.23,9.1c0.26-4.47,0.75-8.96,2.56-13.1
	c-2.88-1.48-9.73-1.96-6.8,2.99c2.77,5.75-4.33,13.46-10.37,10.93c0.02-2.32-0.25-4.63-0.33-6.94c0.22-3.58,4.88-4.65,5.29-8.14
	c-1.02-2.04-1.42-4.75-3.38-6.08c-2.22,3.63-1.25,9.93-6.72,10.55c-8.46,1.73-14.46,8.18-22.52,10.73c1.61,1.88,4.74,3.07,3.12,6.03
	c-1.38-0.34-2.74-0.74-4.13-1.04c-1.63-0.29-3.34-0.23-4.8,0.63c-3.22,1.49-8.93,4.46-11.08,0.24c-2.11-3.53-7.22-4.08-8.69-8.13
	c-0.4-5.29-7.07-4.57-10.62-6.58c1.24,2.33,5.09,4.79,1.56,6.92c-3.92,3.07,1.04,7.81,1.79,11.52c-5.8-1.88-6.39,4.94-11.8,4.39
	c-0.1-6.89-6.86-7.23-11.88-9.09c0.38,3.98-2.32,1.75-4.49,0.88c2.14,3.97,6.06,7.84,2.35,12.33c-3.63-4.93-6.08-10.67-10.1-15.31
	c-6.11-12.49-13.83-24.22-21.13-36.06c-0.83-7.7,9.93-4.85,13.06-8.72c2.99,2.54,6.09,5.79,10.64,3.7
	c4.55-2.48,1.21-7.99-0.32-11.49c1.09-2.16,2.45-2.64,3.76-0.44c2.03,3.85,5.39-4.29,6.63-0.58c3.21,5.69-1.99,5.4-4.9,4.77
	c1.65,3.37,7.22,2.56,9.24-0.08c3.22-4.21-2.27-7.44-4.4-10.48c0.92-5.43-5.9-5.89-6.67-10.18c3.04-0.54,6.51-1.02,5.62-5.66
	c4.39-0.95,0.95-8.85-2.77-7.2c0.14-2.16,1.07-4.12,1.72-6.15c-4.05-0.36-7.89-9.16-2.73-9.42c1.81,1.65,3.11,4.14,5.68,4.7
	c1.89-2.76,4.15-5.29,8.25-3.87c-0.49-3.14-1.19-6.29-0.69-9.5c2.72-1.99,5.55-3.82,8.14-6c1.47-0.98,5.63-2.99,1.8-3.86
	c3.22-0.91,6.51-1.94,9.78-2.39c2.74,3.59,2.83,5.81-1.66,2.92c-5.68,6.72,11.09,8.39,7.21-0.22c1.16,2.21,1.55,5.33,4.53,5.7
	c-4.43,2-3.88,7.43-7.13,10.31c-4.61-0.05-11.2-1.47-12.9,4.12c-0.55,2.35-0.83,4.78-0.84,7.28c-0.06,0.66-0.19,1.99-0.26,2.65
	c-0.75,6.09-1.36,12.36-0.24,18.45c0.11,0.72,0.32,2.14,0.42,2.85c0.07,2.99,0.11,6,0.19,9c0.61,3.04-1.76,10.02-1.35,0.01
	c-4.19-1.41-1.6,5.16-1.42,7.58c4.59,11.5,11.3,23.22,21.48,30.51c6.42,4.24,14.6,1.27,19.18-4.19c0.24-0.23,0.72-0.7,0.97-0.93
	c6.35-6.77,8.33-16.54,14.3-23.75c0.5-7.15,3.9-14.25,3.11-21.49c-2.37-6.95-4.99-13.82-7.4-20.76
	c-2.06-8.41-12.6-10.99-14.88-18.84c4.1-3.65,7.52,3.16,11.75,0.63c5.98-0.47-3.2-4.3-4.73-3.18c-1.52-4.67,4.2-1.98,7.2-2.03
	C182.85,69.63,178.94,69.46,176.07,68.67z"/>
<path fill="#666F8A" d="M15.91,66.92c-0.33-3.84,2.06-0.21,3.03,1.12c1.7,3.25,6.03,3.99,7.02,7.81c-1.1,0.46-2.19,0.95-3.28,1.44
	C20.22,73.97,18.23,70.33,15.91,66.92z"/>
<path fill="#858DA4" d="M36.33,93.28c-0.16-8.03-9.3-13.51-9.57-21.7c7.19,11.54,14.33,23.13,20.65,35.17
	c-0.37,1.16-0.75,2.31-1.15,3.46C42.9,104.6,39.02,99.25,36.33,93.28z"/>
<path fill="#444854" d="M22.68,77.29c1.09-0.49,2.18-0.98,3.28-1.44c3.15,5.98,6.75,11.72,10.37,17.43
	c2.69,5.97,6.57,11.32,9.93,16.93c0.27,0.86,0.53,1.71,0.8,2.57c-0.06,5.91,4.97,10.42,4.69,16.51
	C42.24,111.86,31.75,94.97,22.68,77.29z"/>
<path fill="#5D4540" d="M158.27,81.09c4.87-0.49,8.67,2.84,12.77,4.84c-0.75-0.02-2.26-0.08-3.01-0.1
	c-1.99-0.48-3.99-0.87-6.01-1.17c-2.82,0.35-3.4,5.23-6.76,5.29c-5.44-3.47-11.38-0.88-16.28,1.92c-1.49,1.02-2.17,2.73-2.97,4.27
	c0.01-2.5,0.29-4.93,0.84-7.28c5.97-3.57,12.61-2.12,19-0.85C156.98,85.82,157.36,83.36,158.27,81.09z"/>
<path fill="#242426" d="M206.82,80.99c2.57,0.96,3.86,3.34,5.08,5.63c-1.89,3.59-1.84,7.69-2.21,11.63
	C206.32,92.67,208.89,86.9,206.82,80.99z"/>
<path fill="#FDD5CE" d="M155.26,89.95c3.36-0.06,3.94-4.94,6.76-5.29c9.02,2.44,5.23,13.44,11.56,18.69
	c2.31,1.67-0.17,3.94-0.46,5.91c-1.39,0.54-2.79,1.03-4.18,1.53c-1.49,0.41-2.87,1.11-4.12,2.01c-3.63,0.18-7.24,0.33-10.86,0.2
	c-0.66-0.08-1.97-0.25-2.63-0.33c-1.15-0.23-2.31-0.45-3.47-0.64c-2.19-0.44-4.38-0.88-6.59-1.23c-1.11-0.3-2.21-0.6-3.31-0.92
	c0.29-5.3,0.09-11.03,5.75-13.07C140.1,88.11,150.22,91.66,155.26,89.95z"/>
<path fill="#F4B5A6" d="M162.02,84.66c2.02,0.3,4.02,0.69,6.01,1.17c4.75,2.15,2.31,9.33,7.1,11c4.63,1.41,3.97,7.56,3.11,11.38
	c-1.71,0.37-3.42,0.71-5.12,1.05c0.29-1.97,2.77-4.24,0.46-5.91C167.25,98.1,171.04,87.1,162.02,84.66z"/>
<path fill="#C68272" d="M168.03,85.83c0.75,0.02,2.26,0.08,3.01,0.1c1.93,2.48,4.25,4.58,6.99,6.13c0.24,0.21,0.73,0.61,0.97,0.81
	l0.17,0.83c-0.6,4.81,5.39,11.06,1.72,14.33c-0.66,0.04-1.99,0.14-2.65,0.18c0.86-3.82,1.52-9.97-3.11-11.38
	C170.34,95.16,172.78,87.98,168.03,85.83z"/>
<path fill="#60413B" d="M171.04,85.93c2.46,1.65,6.34,2.81,6.99,6.13C175.29,90.51,172.97,88.41,171.04,85.93z"/>
<path fill="#6A6A6C" d="M209.69,98.25c0.37-3.94,0.32-8.04,2.21-11.63c1.27,1.51,0.12,3.39,0,5.09c-0.44,2.4-0.87,4.8-1.26,7.21
	l-0.89,0.16L209.69,98.25z"/>
<path fill="#E5A693" d="M138.98,91.87c4.9-2.8,10.84-5.39,16.28-1.92c-5.04,1.71-15.16-1.84-11.55,6.86
	c-5.66,2.04-5.46,7.77-5.75,13.07C134.57,104.81,138.39,97.77,138.98,91.87z"/>
<path fill="#B6776B" d="M136.01,96.14c0.8-1.54,1.48-3.25,2.97-4.27c-0.59,5.9-4.41,12.94-1.02,18.01c1.1,0.32,2.2,0.62,3.31,0.92
	c-8.05,2.62-4.91-6.86-5.52-12.01C135.82,98.13,135.95,96.8,136.01,96.14z"/>
<path fill="#B2B2B3" d="M210.64,98.92c0.39-2.41,0.82-4.81,1.26-7.21c2.74,3.53,2.78,8.14,3.08,12.39
	c-1.37-1.41-2.69-2.87-4.04-4.29L210.64,98.92z"/>
<path fill="#503C3A" d="M179,92.87c2.05,0.96,4.05,2.03,5.99,3.2c2.41,6.94,5.03,13.81,7.4,20.76c-3.18-3.17-6.62-0.32-9.33,1.9
	c-4.12,4.48-9.97,0.42-14.88,0.18c-0.03,1.69,1.69,4.58-1.23,4.41c-1.27-1.24-2.6-2.4-3.92-3.57l-0.42-0.74
	c2.33-2.57,4.48-5.28,6.33-8.22c1.39-0.5,2.79-0.99,4.18-1.53c1.7-0.34,3.41-0.68,5.12-1.05c0.66-0.04,1.99-0.14,2.65-0.18
	c6.39,0.05,1.87-11.2-1.72-14.33L179,92.87z"/>
<path fill="#975F53" d="M179.17,93.7c3.59,3.13,8.11,14.38,1.72,14.33C184.56,104.76,178.57,98.51,179.17,93.7z"/>
<path fill="#A9B4C5" d="M54.09,96.92c2.12-0.43,3.74,1.72,1.83,3.26C55.05,99.25,54.5,98.11,54.09,96.92z"/>
<path fill="#473432" d="M135.51,117.24c-1.12-6.09-0.51-12.36,0.24-18.45c0.61,5.15-2.53,14.63,5.52,12.01
	c2.21,0.35,4.4,0.79,6.59,1.23C154.96,117.88,134.17,109.31,135.51,117.24z"/>
<path fill="#221F1F" d="M209.75,99.08l0.89-0.16l0.3,0.89c0.74,3.09,2.88,5.51,4.28,8.3c0.37,2.59,0.8,5.21,1.42,7.77
	c-0.15,0.33-0.43,0.98-0.58,1.31C207.11,115.13,208.94,106.32,209.75,99.08z"/>
<path fill="#737174" d="M210.94,99.81c1.35,1.42,2.67,2.88,4.04,4.29c0.8,1.41,3.62,4.19,0.24,4.01
	C213.82,105.32,211.68,102.9,210.94,99.81z"/>
<path fill="#6F7589" d="M47.41,106.75c0.93,1.43,1.85,2.88,2.74,4.34c4.16,7.37,8.25,14.77,12.79,21.92
	c1.36,5.65,11,11.53,5.93,16.5c-7.65-12.02-14.17-24.74-21.81-36.73c-0.27-0.86-0.53-1.71-0.8-2.57
	C46.66,109.06,47.04,107.91,47.41,106.75z"/>
<path fill="#BBC1DD" d="M50.15,111.09c1.04-0.43,2.08-0.87,3.11-1.32c2.04,3.5,4.26,6.89,6.46,10.29c2.21,3.84,4.42,7.67,6.51,11.57
	c-1.1,0.45-2.2,0.91-3.29,1.38C58.4,125.86,54.31,118.46,50.15,111.09z"/>
<path fill="#B17A70" d="M164.82,112.8c1.25-0.9,2.63-1.6,4.12-2.01c-1.85,2.94-4,5.65-6.33,8.22c-0.61-0.83-1.23-1.66-1.86-2.47
	C160.96,114.27,163.21,113.85,164.82,112.8z"/>
<path fill="#C6D4E8" d="M62.55,113.25c2.91-2.69,5.42,3.1,3.18,5.16C64.58,116.75,63.51,115.03,62.55,113.25z"/>
<path fill="#716F71" d="M102.89,117.9c-2.03-1.28-2.08-3.19-0.12-5.76C103.49,113.98,103.65,116.03,102.89,117.9z"/>
<path fill="#735551" d="M147.86,112.03c1.16,0.19,2.32,0.41,3.47,0.64c0.91,2.06,1.64,4.2,2.36,6.33
	c-5.02,3.42-12.11,2.68-17.76,1.09c-0.1-0.71-0.31-2.13-0.42-2.85C134.17,109.31,154.96,117.88,147.86,112.03z"/>
<path fill="#2A2D38" d="M47.06,112.78c7.64,11.99,14.16,24.71,21.81,36.73c0.92,1.94,2.01,3.79,3.13,5.62
	c5.78,10.75,12.17,21.15,18.02,31.86c4.25,7.19,8.26,14.54,12.78,21.57c1.54,5.56,4.48,10.57,7.79,15.25
	c2.04,3.07,3.96,6.22,5.86,9.38c0.22,1.04,0.46,2.09,0.7,3.14c0.56,2.73,1.59,5.35,2.67,7.92c0.91,2.61-1.9,0.5-3.19,0.45
	c-1.04-1.41-1.95-2.91-2.71-4.49c2.13-0.91,0.38-4.25-1.25-2.2c-0.5-0.96-0.97-1.92-1.43-2.89c1.25-1.75-0.13-5.61-2.6-4.25
	c-0.47-0.85-0.9-1.72-1.32-2.59c1.03-4.3-2.63-8.23-5.11-11.43c-0.06,0.51-0.18,1.53-0.23,2.04c-5.61-8.38-10.41-17.35-14.97-26.33
	c-0.88-8.41-7.2-18.29-13.23-23.54c-2.47-4.72-6.48-7.34-11.98-5.24c0.5-1.17,1-2.34,1.52-3.5c1.61-2.3,3.82-5.61,1.66-8.25
	c-4.86-7.31-8.89-15.12-13.23-22.74C52.03,123.2,47,118.69,47.06,112.78z"/>
<path fill="#9D6961" d="M151.33,112.67c0.66,0.08,1.97,0.25,2.63,0.33c1.8,1.34,1.25,3.9,2.98,5.32c-0.12,1.75-0.78,3.39-1.85,4.77
	c-6.03,0.1-12.08,0.17-18.01-1.05c0.01,1.66,0.02,4.99,0.02,6.65l-0.98,0.4c-0.08-3-0.12-6.01-0.19-9
	c5.65,1.59,12.74,2.33,17.76-1.09C152.97,116.87,152.24,114.73,151.33,112.67z"/>
<path fill="#E7AFA3" d="M153.96,113c3.62,0.13,7.23-0.02,10.86-0.2c-1.61,1.05-3.86,1.47-4.07,3.74c-1.28,0.57-2.56,1.15-3.81,1.78
	C155.21,116.9,155.76,114.34,153.96,113z"/>
<path fill="#1A1515" d="M171.74,115.25c1.07-3.94,5.94-2.21,9.04-2.09c4.57,2.03-5.01,7.38-2.2,2.53c-1.06-4.01-2.61,3.33-5.72,1.55
	C172.58,116.75,172.02,115.75,171.74,115.25z"/>
<path fill="#281F1E" d="M142.35,115.27c6.26-4.02,9.87,3.48,3.84,4.62c-1.61-4.15-5.79-4.04-2.2,0.22
	C140.02,120.8,137.2,115.94,142.35,115.27z"/>
<path fill="#CABCC8" d="M172.86,117.24c-1.22,2.75-4.41-2.34-1.12-1.99C172.02,115.75,172.58,116.75,172.86,117.24z"/>
<path fill="#90645E" d="M183.06,118.73c2.71-2.22,6.15-5.07,9.33-1.9c-0.4,1.06-0.81,2.12-1.23,3.17c-2.26,2.15-5.82,3.88-4.22,8.04
	c-1.31,5.91-3.84,11.49-5.81,17.2c-0.33,1.08-0.66,2.16-0.99,3.25l-0.92-0.59c2.03-7.5,1.96-15.67,6.27-22.43
	C187.46,121.89,186.18,119.56,183.06,118.73z"/>
<path fill="#5E5C5E" d="M216.06,117.19c0.15-0.33,0.43-0.98,0.58-1.31c0.16,0.69,0.48,2.07,0.64,2.76c1.16,6.16-2.4,11.6-1.68,17.67
	c-6.18-3.26,2.2-11.04,0.34-16.57C215.97,119.1,216.03,117.83,216.06,117.19z"/>
<path fill="#FAD4CC" d="M156.94,118.32c1.25-0.63,2.53-1.21,3.81-1.78c0.63,0.81,1.25,1.64,1.86,2.47l0.42,0.74
	c-0.84,5.84,1.68,11.77,0.28,17.53l-0.22,0.9c-3.12,0-5.99-1.2-8.91-2.09c-1.9,1.76,0.57,4.47,0.7,6.64
	c-0.27,0.26-0.81,0.79-1.08,1.05c-2.44,1.23-4.77,2.72-6.72,4.66c-3.89-5.2-3.42-12.12-6.84-17.54c-0.19-1.9-3.63-5.42-0.9-6.65
	c4.9-1.17,11.45,1.24,15.75-1.16C156.16,121.71,156.82,120.07,156.94,118.32z"/>
<path fill="#352C2B" d="M192.39,116.83c0.79,7.24-2.61,14.34-3.11,21.49c-5.97,7.21-7.95,16.98-14.3,23.75
	c0.54-1.74,1.13-3.46,1.91-5.11c1.64-2.58,2.62-5.5,3.25-8.47c0.33-1.09,0.66-2.17,0.99-3.25c6.6-6.82,6.54-16.86,10.03-25.24
	C191.58,118.95,191.99,117.89,192.39,116.83z"/>
<path fill="#C48579" d="M168.18,118.91c4.91,0.24,10.76,4.3,14.88-0.18c3.12,0.83,4.4,3.16,2.43,6.74
	c-4.31,6.76-4.24,14.93-6.27,22.43c-2.27-1.57-4.73-2.78-7.3-3.77c1.57-0.04,3.15-0.08,4.7-0.37c1.72-7.51,5.42-14.41,7.49-21.73
	c-5.68,0.51-11.44,2.26-17.16,1.29C169.87,123.49,168.15,120.6,168.18,118.91z"/>
<path fill="#B8B7B8" d="M217.28,118.64c3.29,1.24-1.47,6.56,0.72,8.35c-2.88,6.61,4.18,6.02,7.1,8.82c-3.19,0.11-6.33,0.3-9.5,0.5
	C214.88,130.24,218.44,124.8,217.28,118.64z"/>
<path fill="#C38C83" d="M163.03,119.75c1.32,1.17,2.65,2.33,3.92,3.57c-5.48,0.46,5.78,8.11,2.59,12.69
	c-2.17-1.95-4.32,0.08-6.23,1.27C164.71,131.52,162.19,125.59,163.03,119.75z"/>
<path fill="#5C4743" d="M186.94,128.04c-1.6-4.16,1.96-5.89,4.22-8.04c-3.49,8.38-3.43,18.42-10.03,25.24
	C183.1,139.53,185.63,133.95,186.94,128.04z"/>
<path fill="#1C1A1D" d="M211.32,137.11c1.71-5.79-1.17-13.43,4.62-17.37c1.86,5.53-6.52,13.31-0.34,16.57
	c3.53,0.65,7.15,0.75,10.72,0.53c10.02,1.19,19.48,3.79,27.82,9.92c-0.03,1.57,1.38,2.62,2.89,2.31c7.55,1.41,10.85,9.1,16.73,12.19
	c-2.26,12.22,9.53-2.21,9.12,9.03c1.05,2.43,1.18,5.56,4.32,6.5c6.56,3.2,7.61,10.94,12.08,15.96c3.58,2.41,8.2,5.05,6.04,10.08
	c2.41,2.47,2.98,5.59,1.68,8.79c-5.29-1.02-5.01,6.54-4.73,9.77c-3.99,6.12,5.83,13.87,1.75,18.63c-7.55,0.43,0.25-11.05-6.96-10.06
	c0.39,2.75,1.19,5.6-0.24,8.2c-3.2-3.94-2.59-10.13-3.83-14.89c6.97-1.6,3.29-10.69,2.81-16c-5.36,0.66-9.37-1.6-12.03-5.91
	c-2.64,0.52-8.73,0.8-5.61-3.18c2.71-5.63-5.46-5.39-7.03-9.07c4.81-5.29-6.16-5.34-6.84-10.29c-1.24-9.29-14.14-0.18-17.31-7.69
	c5.69-5.38,14.26,2.98,19.76-2.34c1.92-1.02,6.97,1.52,6.07-2.49c-3.02-2.6-6.48-1.86-9.75-0.31c-4.61-0.98-5.09-7.68,0.42-6.64
	c11.8,1.54-4.3-4.21-6.96-2.72c-1.35-7.03-11.1-6.11-16-9.99c-6.06-0.16-14.99-4.81-16.78,3.29c-5.37,0.8-3.51-5.79-0.14-7.37
	C224.26,137.57,212.35,140.82,211.32,137.11z"/>
<path fill="#D49F93" d="M137.08,122.04c5.93,1.22,11.98,1.15,18.01,1.05c-4.3,2.4-10.85-0.01-15.75,1.16
	c-2.73,1.23,0.71,4.75,0.9,6.65c3.42,5.42,2.95,12.34,6.84,17.54c-0.72,0.73-1.45,1.43-2.2,2.11c-0.59-1.21-1.16-2.43-1.78-3.62
	c-2.81-5.82-2.4-12.8-6-18.24C137.1,127.03,137.09,123.7,137.08,122.04z"/>
<path fill="#F8C4B8" d="M166.95,123.32c5.72,0.97,11.48-0.78,17.16-1.29c-2.07,7.32-5.77,14.22-7.49,21.73
	c-1.55,0.29-3.13,0.33-4.7,0.37c-4.57-0.92-3.77-4.72-2.38-8.12C172.73,131.43,161.47,123.78,166.95,123.32z"/>
<path fill="#B4BFD5" d="M71.87,128.88c2.67-2.1,6.3,3.87,1.73,3.16C73.01,131,72.45,129.94,71.87,128.88z"/>
<path fill="#4B3B39" d="M133.35,136.68c-0.18-2.42-2.77-8.99,1.42-7.58c-0.41,10.01,1.96,3.03,1.35-0.01l0.98-0.4
	c-0.53,6.96,0.69,13.32,6,18.24c0.62,1.19,1.19,2.41,1.78,3.62c1.93,3.61,2.02,8.71,5.91,10.87c1.98,1.88,4.4,3.24,7.05,3.93
	c5.6,1.83,10.77-1.46,16.17-2.35c-4.58,5.46-12.76,8.43-19.18,4.19C144.65,159.9,137.94,148.18,133.35,136.68z"/>
<path fill="#A27267" d="M137.1,128.69c3.6,5.44,3.19,12.42,6,18.24C137.79,142.01,136.57,135.65,137.1,128.69z"/>
<path fill="#9FA6C0" d="M62.94,133.01c1.09-0.47,2.19-0.93,3.29-1.38c9.59,16.27,18.47,32.97,28.76,48.82
	c-0.87,1.04-0.93,4.15-2.75,3.25c-6.51-9.63-11.6-20.17-17.94-29.87c-1.04-1.72-1.61,0.51-2.3,1.3c-1.12-1.83-2.21-3.68-3.13-5.62
	C73.94,144.54,64.3,138.66,62.94,133.01z"/>
<path fill="#C3CDE1" d="M75.93,136.06c2.54-4.51,4.31,2.87,2.94,5.18C77.84,139.54,76.88,137.8,75.93,136.06z"/>
<path fill="#6C4845" d="M163.31,137.28c1.91-1.19,4.06-3.22,6.23-1.27c-1.39,3.4-2.19,7.2,2.38,8.12c2.57,0.99,5.03,2.2,7.3,3.77
	l0.92,0.59c-0.63,2.97-1.61,5.89-3.25,8.47c3.15-5.18-1.9-9.74-6.47-5.77c-5.52-2.06-11.56,1.56-17.54,0.34
	c4.23-5.43,13.22-2.06,19.26-2.77c-1.36-1.5-2.69-3.34-4.78-3.79c-4.46-1.21-9.85-1.5-13.83,1.17c0.08-0.79,0.18-1.58,0.27-2.36
	c0.27-0.26,0.81-0.79,1.08-1.05c2.14-5.09,9.71,3.29,8.21-4.55L163.31,137.28z"/>
<path fill="#B37A76" d="M154.18,136.09c2.92,0.89,5.79,2.09,8.91,2.09c1.5,7.84-6.07-0.54-8.21,4.55
	C154.75,140.56,152.28,137.85,154.18,136.09z"/>
<path fill="#575657" d="M215.6,136.31c3.17-0.2,6.31-0.39,9.5-0.5c0.31,0.25,0.92,0.77,1.22,1.03
	C222.75,137.06,219.13,136.96,215.6,136.31z"/>
<path fill="#9F716A" d="M147.08,148.44c1.95-1.94,4.28-3.43,6.72-4.66c-0.09,0.78-0.19,1.57-0.27,2.36
	c-0.19,0.87-0.37,1.74-0.52,2.62c4.63-2.27,10.29-0.01,14.35-3.79c2.09,0.45,3.42,2.29,4.78,3.79c-6.04,0.71-15.03-2.66-19.26,2.77
	c-1.43-1.85-3.21-0.15-4.62,0.79c0.01,3.16,2.77,5.79,2.53,9.1c-3.89-2.16-3.98-7.26-5.91-10.87
	C145.63,149.87,146.36,149.17,147.08,148.44z"/>
<path fill="#DFA9A6" d="M153.53,146.14c3.98-2.67,9.37-2.38,13.83-1.17c-4.06,3.78-9.72,1.52-14.35,3.79
	C153.16,147.88,153.34,147.01,153.53,146.14z"/>
<path fill="#68696F" d="M254.14,146.76c1.43-0.06,2.64,0.89,2.89,2.31C255.52,149.38,254.11,148.33,254.14,146.76z"/>
<path fill="#A4B4E3" d="M84.96,148.88c7.3,11.84,15.02,23.57,21.13,36.06c-9.27-9.93-13.94-23.71-21.97-34.79
	C84.33,149.83,84.75,149.2,84.96,148.88z"/>
<path fill="#9B6F65" d="M170.42,151.19c4.57-3.97,9.62,0.59,6.47,5.77c-0.78,1.65-1.37,3.37-1.91,5.11
	c-0.25,0.23-0.73,0.7-0.97,0.93c-5.4,0.89-10.57,4.18-16.17,2.35c3.54-1.45,7.28-2.03,11.06-2.49c3.32,0.01,3.39-7.9-2.79-2.83
	c-3.72,2.5-11.44-0.46-11.18-4.9C159.4,153.78,169.04,158,170.42,151.19z"/>
<path fill="#CE9B94" d="M148.26,152.32c1.41-0.94,3.19-2.64,4.62-0.79c5.98,1.22,12.02-2.4,17.54-0.34
	c-1.38,6.81-11.02,2.59-15.49,3.94c-0.26,4.44,7.46,7.4,11.18,4.9c6.18-5.07,6.11,2.84,2.79,2.83c-3.78,0.46-7.52,1.04-11.06,2.49
	c-2.65-0.69-5.07-2.05-7.05-3.93C151.03,158.11,148.27,155.48,148.26,152.32z"/>
<path fill="#697287" d="M72,155.13c0.69-0.79,1.26-3.02,2.3-1.3c6.34,9.7,11.43,20.24,17.94,29.87c1.82,0.9,1.88-2.21,2.75-3.25
	c1.49-1.15-1.06-5.91,1.53-3.97c1.3,2.97,4.85,6.77,1.7,9.65c3.71,5.13,6.41,11.01,9.23,16.67c-3.44,7.06,3.94,12.45,7,18.19
	c1.81,4.05,3.96,7.92,6.19,11.75c-1.04,1.31-2.13,2.59-3.49,3.59c-0.24-1.05-0.48-2.1-0.7-3.14c0.07-3.22-1.77-11.03-5.86-9.38
	c-3.31-4.68-6.25-9.69-7.79-15.25c0.85-0.76,1.58-1.62,2.19-2.57c-3.22-7.42-8.44-13.68-12.34-20.71c-0.91,0.52-1.77,1.12-2.63,1.71
	C84.17,176.28,77.78,165.88,72,155.13z"/>
<path fill="#636366" d="M56.12,169.22c2.78-3.96,0.56-11.42,7.2-8.94c-0.52,1.16-1.02,2.33-1.52,3.5
	C59.91,165.59,58.01,167.4,56.12,169.22z"/>
<path fill="#161618" d="M204.1,160.87c1.96,1.33,2.36,4.04,3.38,6.08c-0.41,3.49-5.07,4.56-5.29,8.14c0.08,2.31,0.35,4.62,0.33,6.94
	c6.04,2.53,13.14-5.18,10.37-10.93c-2.93-4.95,3.92-4.47,6.8-2.99c-1.81,4.14-2.3,8.63-2.56,13.1c3.58-1.62,4.73-5.8,6.23-9.1
	c4.76,0.54,6.94,5.68,7.84,9.71c3.68,0.44,8.65-0.88,8.7,4.15c-5.87,0.21-11.74-0.16-17.6,0.22c-4.23,3.14,6.97,5.56,1.56,9.76
	c-3.26-1.71-3.96-6.55-7.17-8.65c-3.22-2.51-7.26,0.23-10.88-0.86c1.91,3.59,4.02,7.11,6.53,10.32c2.03,1.34,8.4-0.56,3.99,2.55
	c-5.14,0.85-3.43,7.28,1.36,6.21c1.76,5.38,7.03,1.92,7.87-2.09c1.84-5.12,11.01-3.31,9.99,2.21c-1.31,3.08,1.76,4.87,3.17,7.15
	c-3.9,2.13,2.09,8.33-2.88,8.93c-7.38,1.35,0.18,10.41,4.92,9.71c0.9,4.84,0.56,9.86,2.79,14.42c-1.95,2.42,0.15,5.13,1,7.55
	c4.76,12.52,12.59,23.84,14.74,37.3c2.77,4.71,1.67,13.67,6.74,16.38c0.99-8.57-7.94-16.98-2.55-24.59
	c-8.97-21.77-14.13-45.54-23.34-67.46c6.86,0.84-2.52-8.48,0.71-11.18c3.68-2.65,6.63,3.41,7.19,6.13
	c2.23,7.66,5.99,14.72,8.72,22.18c5.46,24.68,18.86,46.97,23.17,71.94c1.9,4.33,3.25,8.91,5.79,12.95c-0.79-4.21,4.82-3.89,5.9-0.7
	c2.75,10.36,4.33,21.34,1.15,31.8c-4.94-8.64-0.26-21.99-6.9-30.07c-2.26,2.11,2.57,8.51,0.22,12.34c-2.52,0.57-4.82-0.43-7.06-1.42
	c0.32,2.5,0.81,4.99,0.99,7.52c-0.82,0.97-2.25,1.85-1.7,3.35c1.61,11.4,0.64,22.96,2.57,34.39c-3.39-1.15-4-5.78-7.57-6.8
	c-0.15-3.67,2.55-9.25-2.3-10.53c-6.05-1.85-0.2-11.66-6.81-12.41c-4.03-5.15-7.72-12.23-15.17-12.5c-5.5-0.42-11.55,0.09-16.1-3.66
	c5.05-0.18,2.64-6.74,7.13-7.34c4.58,0.82,8.17,4.71,12.92,5.11c1.06-6.04-4.49-13.15-10.7-13.64c-9.25-11.72-7.9-28.25-16.13-40.64
	c-2.75-3.79-4.38-8.24-6.92-12.15c0.63,3.75,1.95,8.4-3.18,7.5c1.08,3.54,3.74,6.06,6.47,8.41c0.83,6.46-0.3,12.95,0.04,19.43
	c-0.02,3.3-3.98,6.72-6.92,4.3c-3.5-3.61,5.32-6.98,1.15-10.2c-2.74,0.46-5.61,1.14-7.68-1.24c-2.71-2.72-3.23,2.16-4.03,4.05
	c4.01,0.45,8.63,3.58,3.71,6.87c-4.75,4.34-1.5-6.73-5.79-5.82c-4.61-1.47,0.17,8.29-4.74,6.84c-6.49-4.33,1.47-11.77-3.64-16.58
	c-4.1-1.99-3,6.64-6.81,1.55c8.24-6.76,7.83-17.64,11.23-26.79c-0.25-7.2-8.36-3.38-12.63-5.75c-1.5,2.04-2.18,5.83-5.27,5.78
	c-3.33-4.76-0.86-10.9,0.05-16.03c7.87,1.97,13.42,10.4,21.84,12.11c-0.15-2.37-0.78-4.66-1.01-7.02c1.22-2.59,8.34-3.49,4.8-6.92
	c-7.08-4.59-14.5-8.87-21.13-14.17c4.89-5.34,11.73-8.53,17.11-13.37c0.39-4.92-5.94-7.66-7.37-12.34
	c-5.67-1.01-9.65,8.14-15.24,5.54c-3.28-2.42-5.46-6.08-9.19-7.93c-4.73-1.71,2.69-9.2-1.96-10.15c1.46-0.86,3.17-0.92,4.8-0.63
	c-5.33,6.56,5.35,7.48,9.89,8.83c2.51-2.66,3.77-7.9,8.16-8c2.75,1.55,4.61,4.8,7.99,5.12c2.24-2.3,8.3-8.4,2.12-9.08
	c-5.04-1.01-0.95-12.59-8.61-8.73c-4.96,4.16-8.46,13.62-15.42,12.9c1.62-2.96-1.51-4.15-3.12-6.03c8.06-2.55,14.06-9,22.52-10.73
	C202.85,170.8,201.88,164.5,204.1,160.87z"/>
<path fill="#0E0E10" d="M61.8,163.78c5.5-2.1,9.51,0.52,11.98,5.24c3.88,8.15,9.27,15.44,13.23,23.54
	c4.56,8.98,9.36,17.95,14.97,26.33c1.93,3.03,3.59,6.24,5.34,9.39c0.42,0.87,0.85,1.74,1.32,2.59c0.75,1.48,1.64,2.89,2.6,4.25
	c0.46,0.97,0.93,1.93,1.43,2.89c0.32,0.55,0.94,1.65,1.25,2.2c0.76,1.58,1.67,3.08,2.71,4.49c2.59,4.18,5.35,8.3,7.46,12.76
	c-2.49,3.78-2.58,8.5-4.12,12.67c0.42-5.29-4.24-8.61-3.56-13.68c-3.67-4.57-4.64-14.8-12.23-12.95c-0.05-7.42-4.41,0.1-6.21,2.72
	c0.54-3.39,1.96-6.59,2-10.07c-2.35-2.92-3.78-6.34-4.42-10.03c-10.76-2.84-6.4,11.86-10.8,17.72c-2.17,2.19-1.46,5.47-1.99,8.29
	c-1.07-1.27-1.99-2.65-3.04-3.93c-2.22,0.58-4.46,4.17-6.54,1.68c-1.68-2.42-0.38-5.97-2.72-8c-2.03,10.62-12.07,16.64-16.74,25.88
	c-8.5-2.35-2.76,8.89-4.52,13.39c-2.91,5.54-2.09,14.54-9.01,17.13c-2.22-0.83,2.3-10.63-1.94-9c-3.09,5.17-1.91,13.11-8.13,16.12
	c-0.19-0.42-0.57-1.25-0.76-1.67c-0.37-1-0.76-1.99-1.16-2.97c-0.77-2.05-1.77-4-2.89-5.87c-1.03-2.35-2.76-4.34-5.32-4.98
	c-0.35-1.21-1.32-2.23-2.67-2.02c0.69-2.18,0.75-4.22-2.05-4.49c-1.92-3.93-0.26-7.98,1.67-11.41l0.78-0.29
	c4.73-1.16,2.79-8.22,7.51-10.15c0.43-7.35,1.98-14.61,3.61-21.68c1.51-2.7,0.87,1.72,1.23,2.82c3.83-0.97,9.43-4.54,10.35,1.37
	c0.38-2.75,6.33-10.02,2.87-0.58c-1.76,4.17-0.5,14.78,5.62,11.47c-0.84-3.11-5.3-7.86,0.38-8.4c7.14,0.39-0.63-10.32,5.29-12
	c4-1.46,1.27-4.93,0.17-7.51c4.55-3.96,5.39-10.13,4.37-15.8c5.64-3.96,9.17,4.33,7.18,9.03c-2.87,1.82,3.36,5.34,3.39,1.69
	c4.17,1.53,12.05,2.43,12.6-3.79c1.49,4.62,8.88,2.95,5.7-3.08c-1.85-1.85-0.28-5.64-2.95-6.31c1.96-4.42,1.76-12.06-4-13.33
	c-4.19,1.63-4.58-2.99-4.24-6.49c-4.49,2.07-8.01,8.6-13.47,6.7c-1.83,2.35-12.08,8.37-5.34,8.56c-3.69,5.22-9.22,9.05-11.82,15.1
	c-4.9,2.47-5.23-4.43-7.36-7.44c0.49-8.76,3.59-16.67,6.62-24.84c-1.39-4.77,2.44-8.3,4.56-12.16c-3.64-1.9-6.72,6.37-6.18,0.11
	c2.31-1.75,4.53-3.63,6.97-5.2c1.67,1.73,4.1,1.47,5.34-0.57C58.01,167.4,59.91,165.59,61.8,163.78z"/>
<path fill="#98979A" d="M42.84,174.9c2.32-1.83,4.62-7.34,7.94-5.11c-2.44,1.57-4.66,3.45-6.97,5.2L42.84,174.9z"/>
<path fill="#3E4554" d="M73.78,169.02c6.03,5.25,12.35,15.13,13.23,23.54C83.05,184.46,77.66,177.17,73.78,169.02z"/>
<path fill="#131315" d="M138.66,173.3c3.55,2.01,10.22,1.29,10.62,6.58c1.47,4.05,6.58,4.6,8.69,8.13
	c2.15,4.22,7.86,1.25,11.08-0.24c0.57,6.16-3.92,10.15-9.87,10.24c-1.39-3.31-2.49-14.44-8.48-11.34
	c-5.7,4.34,1.77,10.63-2.37,15.47c-3.41,2.03-2.55-4.07-4.97-5.46c-0.47,3.59-1.14,7.12-2.03,10.59c-2.17,0.7-4.77,0.94-5.34,3.61
	c3.59,2.71,7.11,5.61,11.19,7.56c-3.95-0.93-7.94,0.48-11.62-0.86c-2.46-1.74-2.96,2.39-2.44,4.04c5.19-0.27,5.02,5.85,5.92,9.54
	c-1.71-1.81-2.8-7.19-5.56-3.6c-0.83-1.13-1.51-2.36-2.27-3.52c-3.31-4.57-5.59-9.87-9.41-14.06c1.58-3.9,5.17-16.38,7.66-6.96
	c2.6-1.45,1.04-4.61,0.75-6.89c5.41,0.55,6-6.27,11.8-4.39c-0.75-3.71-5.71-8.45-1.79-11.52
	C143.75,178.09,139.9,175.63,138.66,173.3z"/>
<path fill="#2C2B2F" d="M39.95,177.07c0.97-0.72,1.93-1.44,2.89-2.17l0.97,0.09c-0.54,6.26,2.54-2.01,6.18-0.11
	c-2.12,3.86-5.95,7.39-4.56,12.16c-3.03,8.17-6.13,16.08-6.62,24.84c-3.16,8.01,1.03-5.09-4-3.32c1.17-2.84,4.78-7.16,0.21-8.93
	c-0.18-7.43,4.41-13.14,3.84-20.4C39.13,178.69,39.68,177.61,39.95,177.07z"/>
<path fill="#212225" d="M193.4,175.28c7.66-3.86,3.57,7.72,8.61,8.73c6.18,0.68,0.12,6.78-2.12,9.08c-3.38-0.32-5.24-3.57-7.99-5.12
	c-4.39,0.1-5.65,5.34-8.16,8c-4.54-1.35-15.22-2.27-9.89-8.83c1.39,0.3,2.75,0.7,4.13,1.04C184.94,188.9,188.44,179.44,193.4,175.28
	z"/>
<path fill="#2A2728" d="M276.41,176.21c7.08-1.91,12.21,5.64,12.84,11.5c4.7-0.67,4.48,4.57,6.69,7.35c-5.66-2.94-1.72,6.26,0,9.08
	c-2.82-2.14-9.96-0.94-8.83-5.88c7.25-3.82-2.39-12.04-6.97-14.48C276.94,181.98,271.93,179.77,276.41,176.21z"/>
<path fill="#87878D" d="M38.86,179.23c-3.12,0.05-0.98-2.98,1.09-2.16C39.68,177.61,39.13,178.69,38.86,179.23z"/>
<path fill="#545867" d="M90.02,186.99c0.86-0.59,1.72-1.19,2.63-1.71c3.9,7.03,9.12,13.29,12.34,20.71
	c-0.61,0.95-1.34,1.81-2.19,2.57C98.28,201.53,94.27,194.18,90.02,186.99z"/>
<path fill="#98B2E9" d="M106.09,184.94c4.02,4.64,6.47,10.38,10.1,15.31c1.55,3.42,3.58,6.58,5.61,9.73
	c0.44,5.68,4.37,10.14,6.82,15.07c0.6,1.09,1.2,2.18,1.79,3.28c-1.26-0.15-2.47-0.56-3.64-1.04c-3.33-9.83-9.24-18.59-14.23-27.61
	C109.62,195.19,106.79,190.34,106.09,184.94z"/>
<path fill="#242428" d="M150.7,186.67c5.99-3.1,7.09,8.03,8.48,11.34c5.95-0.09,10.44-4.08,9.87-10.24
	c4.65,0.95-2.77,8.44,1.96,10.15c3.73,1.85,5.91,5.51,9.19,7.93c5.59,2.6,9.57-6.55,15.24-5.54c1.43,4.68,7.76,7.42,7.37,12.34
	c-5.38,4.84-12.22,8.03-17.11,13.37c6.63,5.3,14.05,9.58,21.13,14.17c3.54,3.43-3.58,4.33-4.8,6.92c0.23,2.36,0.86,4.65,1.01,7.02
	c-8.42-1.71-13.97-10.14-21.84-12.11c-0.91,5.13-3.38,11.27-0.05,16.03c3.09,0.05,3.77-3.74,5.27-5.78
	c4.27,2.37,12.38-1.45,12.63,5.75c-3.4,9.15-2.99,20.03-11.23,26.79c-2.23,2.1-4.42,4.27-6.81,6.19
	c-8.07,3.75-15.45,12.59-25.16,9.86c1.14-1.23,2.27-2.46,3.42-3.67c2.58-2.01,14.8-2.61,10.02-7.13c-0.29-0.24-0.86-0.72-1.15-0.96
	c-1.9-4.55-6.79-6.81-10.17-10.16c-0.65-0.95-1.29-1.9-1.92-2.85c-3.19-9.26-7.59-18.49-15.21-24.99c-2.39-3.62-4.62-7.35-6.8-11.09
	c-0.42-3.06-0.94-6.45-4.02-7.93c0.23-1.22,1.37-2.6,0.39-3.75c-0.59-1.1-1.19-2.19-1.79-3.28c0.84-0.4,1.74-0.62,2.59-1.01
	c0.76,1.16,1.44,2.39,2.27,3.52c2.76-3.59,3.85,1.79,5.56,3.6c-0.9-3.69-0.73-9.81-5.92-9.54c-0.52-1.65-0.02-5.78,2.44-4.04
	c3.68,1.34,7.67-0.07,11.62,0.86c6.54-3.46,9.36,13.76,14.26,5.95c4.34-5,7.13,4.5,5.98,7.97c-0.35,3.82-6.54,3.39-5.32,7.4
	c0.83,1.51,2.97,1.71,4.13,0.47c6.51-5.91,13.99-10.95,18.65-18.54c-2.09,0.29-4.73,3.37-6.18,0.6c-1.93-2.84,2.32-5.92,1.19-9.11
	c-3.3-2.31-5.9,1.87-8.87,2.82c-2.5-2.09-5.9-3.69-7.22-6.8c2.01-0.08,4.68,1.69,6.11-0.39c0.53-4.73-6.22-2.64-9.29-2.24
	c-4.76,1.6-7.61-4.65-12.29-4.43C152.47,197.3,145,191.01,150.7,186.67z"/>
<path fill="#28282B" d="M118.33,187.04c5.02,1.86,11.78,2.2,11.88,9.09c0.29,2.28,1.85,5.44-0.75,6.89
	c-2.49-9.42-6.08,3.06-7.66,6.96c-2.03-3.15-4.06-6.31-5.61-9.73c3.71-4.49-0.21-8.36-2.35-12.33
	C116.01,188.79,118.71,191.02,118.33,187.04z"/>
<path fill="#272729" d="M63.33,195.66c5.46,1.9,8.98-4.63,13.47-6.7c-0.34,3.5,0.05,8.12,4.24,6.49c5.76,1.27,5.96,8.91,4,13.33
	c-0.47,5.84-7.23-6.93-8.89-4.88c1.32,7.11-5.92,11.31-6.46,18.06c-0.03,3.65-6.26,0.13-3.39-1.69c1.99-4.7-1.54-12.99-7.18-9.03
	c1.02,5.67,0.18,11.84-4.37,15.8c-1,3.17-1.36,8.71-5.77,9.11c1.56-5.91,3.17-11.81,4.2-17.84c2.13-0.34,5.69-3.54,1.85-4.29
	c-7.42,3.23-8.9,13.8-17.62,15.23c2.44-4.45-4.01-7.67-1.05-11.84c2.58-4.98,1.76,4.6,2.87,6.64c2.51-1.13,5.53-2.21,6.94-4.73
	c2.6-6.05,8.13-9.88,11.82-15.1C51.25,204.03,61.5,198.01,63.33,195.66z"/>
<path fill="#2C2B2D" d="M143.36,196.68c2.42,1.39,1.56,7.49,4.97,5.46c4.68-0.22,7.53,6.03,12.29,4.43c3.07-0.4,9.82-2.49,9.29,2.24
	c-1.43,2.08-4.1,0.31-6.11,0.39c1.32,3.11,4.72,4.71,7.22,6.8c2.97-0.95,5.57-5.13,8.87-2.82c1.13,3.19-3.12,6.27-1.19,9.11
	c1.45,2.77,4.09-0.31,6.18-0.6c-4.66,7.59-12.14,12.63-18.65,18.54c-1.16,1.24-3.3,1.04-4.13-0.47c-1.22-4.01,4.97-3.58,5.32-7.4
	c1.15-3.47-1.64-12.97-5.98-7.97c-4.9,7.81-7.72-9.41-14.26-5.95c-4.08-1.95-7.6-4.85-11.19-7.56c0.57-2.67,3.17-2.91,5.34-3.61
	C142.22,203.8,142.89,200.27,143.36,196.68z"/>
<path fill="#1D1D1F" d="M23.92,224.02c-3.4-9.27,4.41-18.55,11.1-24.39c4.57,1.77,0.96,6.09-0.21,8.93c5.03-1.77,0.84,11.33,4,3.32
	c2.13,3.01,2.46,9.91,7.36,7.44c-1.41,2.52-4.43,3.6-6.94,4.73c-1.11-2.04-0.29-11.62-2.87-6.64c-2.96,4.17,3.49,7.39,1.05,11.84
	c8.72-1.43,10.2-12,17.62-15.23c3.84,0.75,0.28,3.95-1.85,4.29c-1.03,6.03-2.64,11.93-4.2,17.84c4.41-0.4,4.77-5.94,5.77-9.11
	c1.1,2.58,3.83,6.05-0.17,7.51c-5.92,1.68,1.85,12.39-5.29,12c-5.68,0.54-1.22,5.29-0.38,8.4c-6.12,3.31-7.38-7.3-5.62-11.47
	c3.46-9.44-2.49-2.17-2.87,0.58c-0.92-5.91-6.52-2.34-10.35-1.37c-0.36-1.1,0.28-5.52-1.23-2.82c-1.63,7.07-3.18,14.33-3.61,21.68
	c-4.72,1.93-2.78,8.99-7.51,10.15c2.35-5.96,1.93-12.39,6.44-17.69c-2.54,3.47-6.38,2.71-8.1-1.07c-0.05-0.43-0.13-1.3-0.17-1.73
	c-0.15-3.19-0.81-6.33-1.27-9.48C17.38,235.66,23.1,230.83,23.92,224.02z"/>
<path fill="#5B6886" d="M112.54,199.68c4.99,9.02,10.9,17.78,14.23,27.61c-1.26-1.74-2.56-3.45-3.87-5.15c-1.6-2.79-2.45-8-6.22-4.3
	c2.47-2.61,1.43-5.36-1.16-7.36c-3.87,4.11-4.99-4.86-7.45-7.05C109.62,202.25,111.08,200.97,112.54,199.68z"/>
<path fill="#1B1A1C" d="M76.15,203.9c1.66-2.05,8.42,10.72,8.89,4.88c2.67,0.67,1.1,4.46,2.95,6.31c3.18,6.03-4.21,7.7-5.7,3.08
	c-0.55,6.22-8.43,5.32-12.6,3.79C70.23,215.21,77.47,211.01,76.15,203.9z"/>
<path fill="#818DAE" d="M107.45,202.8l0.62,0.63c2.46,2.19,3.58,11.16,7.45,7.05c2.59,2,3.63,4.75,1.16,7.36
	c3.77-3.7,4.62,1.51,6.22,4.3c-4.19,0.64-5.36-0.28-8.45-1.15C111.39,215.25,104.01,209.86,107.45,202.8z"/>
<path fill="#060606" d="M281.26,207.19c3.26-1.25,0.73,2.82,1.1,4.52c-1.13,7.52,7.14,11.62,5.69,19.33
	c1.85,6.51,13.24,13.74,7.01,20.95c1.35,1.77,2.02,3.83,2.2,6.04c3.47-0.33,5.4-4.67,9.48-2.86c2.13,3.56,4.55,7.02,6.26,10.83
	c-3.35,2.46-1.86,8.38-7.17,7.23c2.69,1.31,5.45,5.21,8.49,3.61c0.26,0.49,0.78,1.46,1.04,1.95c-0.41,3.08-2.69,5.04-5.24,6.47
	c1.3,5.67,5.73,10.48,4.86,16.75c3.47,8.09-1.9,3.67-4.79,4.06c-2.69,2.96,3.55,7.07-1.02,9.08c-3.73,1.02-2.7,7.18-7.22,5.9
	l-0.09-0.91c4.05-2.71,0.6-8.18-0.12-12.12c-2.79,4.34-5.35,1.75-8.6-0.13c2.62,9.05-1.15,4.77-2.83,2.81
	c-2.96-5.13-1.56-11.78-5.51-16.48c-3.72-4.3,5.3-6.4,2.22-11.25c-2.06-13.03-7.81-25.51-7.01-38.99c0.77-7.1-10.53-9.88-7.09-16.99
	c-1.03-4.14-3.83-12.26,2.44-7.42C278.38,217.87,279.08,210.92,281.26,207.19z"/>
<path fill="#434752" d="M121.8,209.98c3.82,4.19,6.1,9.49,9.41,14.06c-0.85,0.39-1.75,0.61-2.59,1.01
	C126.17,220.12,122.24,215.66,121.8,209.98z"/>
<path fill="#262627" d="M235.84,221.72c4.97-0.6-1.02-6.8,2.88-8.93c0.35,0.56,1.06,1.68,1.42,2.24
	c9.21,21.92,14.37,45.69,23.34,67.46c-5.39,7.61,3.54,16.02,2.55,24.59c-5.07-2.71-3.97-11.67-6.74-16.38
	c-2.15-13.46-9.98-24.78-14.74-37.3c-0.85-2.42-2.95-5.13-1-7.55c-2.23-4.56-1.89-9.58-2.79-14.42
	C236.02,232.13,228.46,223.07,235.84,221.72z"/>
<path fill="#242426" d="M224.99,213.96c4.1-0.28,2.89,5.33,4.22,7.9c5.31,8.59,5.42,19.36,11.07,27.84c2.2,3.16,1.47,6.75,0.74,10.2
	c2.21,3.24,6.7,10.19,0.17,11.19c0.1-6.69-2.54-13.16-7.32-17.84c-1.5-9.27-6.77-18.3-7.43-27.9
	C228.13,221.41,224.31,217.95,224.99,213.96z"/>
<path fill="#4F5E7D" d="M102.21,216.85c2.48,3.2,6.14,7.13,5.11,11.43c-1.75-3.15-3.41-6.36-5.34-9.39
	C102.03,218.38,102.15,217.36,102.21,216.85z"/>
<path fill="#A6B3D8" d="M114.45,220.99c3.09,0.87,4.26,1.79,8.45,1.15c1.31,1.7,2.61,3.41,3.87,5.15c1,1.64,2.09,3.25,3.25,4.79
	c1,2.64,2.01,5.29,3.02,7.94l-0.98,0.05c-2.93-3.34-3.23-10.3-8.28-10.79c1.82-2.12-0.17-5.56-2.84-5.39
	c0.52,1.94,0.67,4.53,2.84,5.39c1.74,4.06,4.14,7.79,6.34,11.61c-6.07,3.68-6.45-4.68-9.48-8.15
	C118.41,228.91,116.26,225.04,114.45,220.99z"/>
<path fill="#889ECA" d="M110.59,223.81c4.09-1.65,5.93,6.16,5.86,9.38C114.55,230.03,112.63,226.88,110.59,223.81z"/>
<path fill="#727C91" d="M120.94,223.89c2.67-0.17,4.66,3.27,2.84,5.39C121.61,228.42,121.46,225.83,120.94,223.89z"/>
<path fill="#1F1E20" d="M84.75,243.84c4.4-5.86,0.04-20.56,10.8-17.72c0.64,3.69,2.07,7.11,4.42,10.03c-0.04,3.48-1.46,6.68-2,10.07
	c1.8-2.62,6.16-10.14,6.21-2.72c7.59-1.85,8.56,8.38,12.23,12.95c-0.68,5.07,3.98,8.39,3.56,13.68c-1.01,2.89-1.97,5.81-3.04,8.69
	c-2.92,2.88-3.32,7.2-5.63,10.44c0.33-3.07,0.51-6.15,0.5-9.24c-4.61,4.39-10.04,7.72-14.09,12.7c-3.21,1.32-2.38-4.95-5.42-4.6
	c-1.84,2.75-3.24,6.19-6.98,6.41c-2.04,3.32,1.47,11.77-3.13,12.55c-1.25-10.71,4.45-20.58,1.37-31.06
	c0.74-3.85,3.26-7.4,3.08-11.41c0.18-2.43-1.14-8.1,3.07-7.79c-3.62-2.86,0.52-3.37,1.16-5.49
	C86.42,251.69,84.62,247.67,84.75,243.84z"/>
<path fill="#4D5C7A" d="M126.77,227.29c1.17,0.48,2.38,0.89,3.64,1.04c0.98,1.15-0.16,2.53-0.39,3.75
	C128.86,230.54,127.77,228.93,126.77,227.29z"/>
<path fill="#69717E" d="M123.78,229.28c5.05,0.49,5.35,7.45,8.28,10.79c1.91,2.25-1.34,3.71-1.94,0.82
	C127.92,237.07,125.52,233.34,123.78,229.28z"/>
<path fill="#55618F" d="M108.64,230.87c2.47-1.36,3.85,2.5,2.6,4.25C110.28,233.76,109.39,232.35,108.64,230.87z"/>
<path fill="#525F81" d="M130.02,232.08c3.08,1.48,3.6,4.87,4.02,7.93l-1,0.01C132.03,237.37,131.02,234.72,130.02,232.08z"/>
<path fill="#8D99BA" d="M120.64,232.74c3.03,3.47,3.41,11.83,9.48,8.15c0.6,2.89,3.85,1.43,1.94-0.82l0.98-0.05l1-0.01
	c2.18,3.74,4.41,7.47,6.8,11.09c0.97,2.65,2.01,5.28,3.15,7.87c-4.33-2.68-4.75-10.13-9.94-11.18c5.41,7.65,8.56,17.98,15.05,24.14
	c-0.21,2.96,1.42,5.53,3.8,7.16c1.23,4.88,3.69,9.36,7.05,13.11c0-5.19-2.14-10.82-7.05-13.11c2.46-2.92-1.57-5.65-3.8-7.16
	c-0.42-4.86-5.35-7.86-5.11-12.96c4.05,5.68,7.59,11.74,12.06,17.12c0.63,0.95,1.27,1.9,1.92,2.85c2.8,3.61,4.84,9.84,10.17,10.16
	c0.29,0.24,0.86,0.72,1.15,0.96c-2.16,3.88-7.73,2.83-10.54,6.35c-2.51-2.63-3.51-7.13-7.3-8.15c-0.14-4.15-3.15-7.44-4.69-11.15
	c-2.48-0.9-3.17,0.7-2.95,2.97c-0.62-0.97-1.16-1.97-1.67-2.99c0.9-0.47,1.79-0.96,2.67-1.46c-1.33-5.67-4.47-10.85-8.38-15.04
	c-0.74-2.61-1.92,0.44-2.98,1.2c-0.38-1.3-1.05-1.52-2.02-0.68c-1.21-1.47-2.36-2.99-3.28-4.65c1.76-2.11-2-9.31-2.46-4.42
	c-1.54-3.92-2.19-8.28-5.63-11.16c-0.06,0.84-0.18,2.52-0.24,3.37c-1.08-2.57-2.11-5.19-2.67-7.92
	C118.51,235.33,119.6,234.05,120.64,232.74z"/>
<path fill="#1D1D20" d="M313.86,235.11c1.73,1.17,3.56,2.35,4.63-0.27c0.88,1.27,2.23,2.5,1.43,4.17c-2.48,4.05,1.55,5.51,3.08,8.32
	c-1.64-0.29-3.3-1.18-4.89-0.16c-0.3,8.2,6.48,14.91,8.3,22.24c-0.97,6.48-9.32-2.9-8.83,3.75c-2.57-3.46-2.37-8.22-3.5-12.27
	c3.55,0.49,4.03,13.29,8.64,6.77c-1.21-6.45-12.34-12.28-8.43-20.33C315.24,243.32,313.64,239.14,313.86,235.11z"/>
<path fill="#8396CB" d="M112.67,238.01c1.63-2.05,3.38,1.29,1.25,2.2C113.61,239.66,112.99,238.56,112.67,238.01z"/>
<path fill="#393940" d="M323,247.33c-1.53-2.81-5.56-4.27-3.08-8.32c2.86,4.57,5.79,9.1,8.44,13.81
	C325.37,252.36,324.33,249.65,323,247.33z"/>
<path fill="#E1E8F8" d="M120.06,240.88c3.44,2.88,4.09,7.24,5.63,11.16c0.75,1.51,1.58,2.97,2.46,4.42
	c0.92,1.66,2.07,3.18,3.28,4.65c2.44,6.3,7.23,10.64,10.71,15.98c0.51,1.02,1.05,2.02,1.67,2.99c4.31,5.55,6.58,12.28,10.59,18.01
	c-2.01,0.92-4.11,1.66-6.29,2.05c-0.22-0.38-0.66-1.16-0.88-1.55c-7.02-13.1-14.58-25.89-21.95-38.79
	c-0.29-0.59-0.89-1.76-1.19-2.34c-2.11-4.46-4.87-8.58-7.46-12.76c1.29,0.05,4.1,2.16,3.19-0.45
	C119.88,243.4,120,241.72,120.06,240.88z"/>
<path fill="#868687" d="M15.89,251.21c-2.1-2.82-4-6.36-1.27-9.48C15.08,244.88,15.74,248.02,15.89,251.21z"/>
<path fill="#19191B" d="M70.46,241.88c2.34,2.03,1.04,5.58,2.72,8c2.08,2.49,4.32-1.1,6.54-1.68c1.05,1.28,1.97,2.66,3.04,3.93
	c0.53-2.82-0.18-6.1,1.99-8.29c-0.13,3.83,1.67,7.85,6.11,7.49c-0.64,2.12-4.78,2.63-1.16,5.49c-4.21-0.31-2.89,5.36-3.07,7.79
	c0.18,4.01-2.34,7.56-3.08,11.41c3.08,10.48-2.62,20.35-1.37,31.06c4.6-0.78,1.09-9.23,3.13-12.55c3.74-0.22,5.14-3.66,6.98-6.41
	c3.04-0.35,2.21,5.92,5.42,4.6c4.05-4.98,9.48-8.31,14.09-12.7c0.01,3.09-0.17,6.17-0.5,9.24c2.31-3.24,2.71-7.56,5.63-10.44
	c-0.82,3.72-1.52,7.5-2.97,11.03c-0.91,0.81-1.84,1.59-2.67,2.49c-4.26,14.69-6.83,30.17-14.09,43.77c0.69,3.78-0.2,7.48-1.56,11.01
	c-1.48-1.29-2.13-3.22-2.39-5.11c3.21-8.67,3.83-18.02,6.61-26.83c-7.22-3.26-5.94,10.85-11.29,13.29
	c-9.19-0.98-7.38,8.82-11.14,13.93c-2.98,4.09-1.01,9.86-4.29,13.74c-6.36,7.03-0.51,16.57-0.37,24.65
	c-5.23,12.21-4.24,26.22-8.18,38.84c-2.64,3.8-1.05,11.64-4.6,13.37c1.87-25.04,1.29-50.11,3.2-75.19
	c-0.36-2.66-0.44-7.02-4.24-4.97c2.96-2.74,4.32-6.82-0.01-9.02c-8.01,5.87-0.57,17.74-5.65,25.43c-3.52,4.11,2.72,11.54-2.71,14.37
	c-2.28,1.02,0.24,4.05-1.89,5.26c-12.4,3.64,3.17-5.81-3.79-6.87c-7.19,1.67-8.5,10.41-8.37,16.62c-3.05,4.39-1.52,9.99-4.19,14.65
	c1.02,3.34,1.87,7.36-1.19,10.02c-2.44-16.07-0.42-32.45-1.3-48.62c-1.64-8.02,1.56-15.82,0.65-23.82
	c1.29-8.06,0.05-16.27,2.13-24.2c0.53-2.18-0.29-5.01-2.56-5.84c-0.07-5.15-0.15-10.28,0.05-15.42c6.22-3.01,5.04-10.95,8.13-16.12
	c4.24-1.63-0.28,8.17,1.94,9c6.92-2.59,6.1-11.59,9.01-17.13c1.76-4.5-3.98-15.74,4.52-13.39C58.39,258.52,68.43,252.5,70.46,241.88
	z"/>
<path fill="#2C2B2E" d="M106.23,247.21c4.6-0.98-2.97,11.29,4.72,7.89c8.86,5.11,2.95,17.62-2.2,23.71
	c-5.05,1.19,3.96-10.8-2.09-8.22c-7.48,0.47-5.44-8.48-4.51-13.47C104.38,254.06,102.72,249.38,106.23,247.21z"/>
<path fill="#5F6477" d="M134.05,247.79c5.19,1.05,5.61,8.5,9.94,11.18c-0.24,5.1,4.69,8.1,5.11,12.96
	C142.61,265.77,139.46,255.44,134.05,247.79z"/>
<path fill="#525C72" d="M125.69,252.04c0.46-4.89,4.22,2.31,2.46,4.42C127.27,255.01,126.44,253.55,125.69,252.04z"/>
<path fill="#3A4356" d="M140.84,251.1c7.62,6.5,12.02,15.73,15.21,24.99c-4.47-5.38-8.01-11.44-12.06-17.12
	C142.85,256.38,141.81,253.75,140.84,251.1z"/>
<path fill="#6F738D" d="M129.2,251.82c4.91-0.3,6.39,6.79,0.86,5.86C129.85,256.22,129.41,253.29,129.2,251.82z"/>
<path fill="#3A3A3E" d="M16.06,252.94c1.72,3.78,5.56,4.54,8.1,1.07c-4.51,5.3-4.09,11.73-6.44,17.69l-0.78,0.29
	c-0.53-4.26-1.21-8.11-0.62-12.22c-0.04-1.3-0.2-2.58-0.48-3.84C15.89,255.19,16,253.69,16.06,252.94z"/>
<path fill="#9D9C9F" d="M16.32,259.77c-2.05-0.3-2.02-2.9-0.48-3.84C16.12,257.19,16.28,258.47,16.32,259.77z"/>
<path fill="#68676C" d="M330.13,255.79c0.64,1.36,1.2,2.78,1.84,4.15c1.23,3.33,1.95,6.79,2.77,10.24
	c-0.15,1.51-0.45,4.53-0.61,6.03C333.46,269.24,329.95,262.87,330.13,255.79z"/>
<path fill="#060607" d="M119.97,270.13c1.54-4.17,1.63-8.89,4.12-12.67c0.3,0.58,0.9,1.75,1.19,2.34
	c-0.61,6.43-2.37,12.74-2.31,19.25c2.03-0.77,3.96-1.89,6.15-2.16c-0.15,3.19-4.96,4.49-3.93,7.8c2.4,4.03,9.01,2.86,9.93,8.2
	c1.18,5.91,7.23,6.44,12.11,5.7c0.22,0.39,0.66,1.17,0.88,1.55c0.58,1.1,1.17,2.2,1.76,3.3c0.12,0.46,0.35,1.39,0.46,1.85
	c-0.3,0.2-0.91,0.6-1.21,0.8c-1.45-0.5-3.01,0.4-3.05,1.99c-1.97,0.61-3.91,1.31-5.86,2.01c-5.27-0.33-10.82,3.38-15.71,0.44
	c-1.41-1.52-3.7-3.96-5.42-1.32c-1.65,4.66,3.98,4.77,7.01,5.95c-1.52,7.68-7.84-5.39-11.34,0.6c-3.87,5.76-6.58-4.71-5.39-7.6
	c1-6.22,2-12.5,4.6-18.31c1.45-3.53,2.15-7.31,2.97-11.03C118,275.94,118.96,273.02,119.97,270.13z"/>
<path fill="#79819A" d="M133.45,261.79c1.06-0.76,2.24-3.81,2.98-1.2c3.91,4.19,7.05,9.37,8.38,15.04c-0.88,0.5-1.77,0.99-2.67,1.46
	c-3.48-5.34-8.27-9.68-10.71-15.98C132.4,260.27,133.07,260.49,133.45,261.79z"/>
<path fill="#19191C" d="M125.28,259.8c7.37,12.9,14.93,25.69,21.95,38.79c-4.88,0.74-10.93,0.21-12.11-5.7
	c-0.92-5.34-7.53-4.17-9.93-8.2c-1.03-3.31,3.78-4.61,3.93-7.8c-2.19,0.27-4.12,1.39-6.15,2.16
	C122.91,272.54,124.67,266.23,125.28,259.8z"/>
<path fill="#070709" d="M219.24,259.7c2.54,3.91,4.17,8.36,6.92,12.15c8.23,12.39,6.88,28.92,16.13,40.64
	c6.21,0.49,11.76,7.6,10.7,13.64c-4.75-0.4-8.34-4.29-12.92-5.11c-4.49,0.6-2.08,7.16-7.13,7.34c-2.89-2.29-5.74-4.63-8.89-6.55
	c-1.54-1.15-3.35-2.44-5.15-0.95c-5.72,4.43,13.18,11.77,0.16,10.25c-6.95,0.05-8.4,10.26-16.1,8.1c0.6,6.15,10.17-0.09,13.58,3.1
	c1.33,1.92,3.66,8.25,5.85,4.07c2.15-4.69,6.94,1.17,8.01,4.05c0.45,4.28,4.67,6.21,8.57,6.5c7.04,1.06,8.64,19.05-1.98,16.13
	c-6.8-0.57-3.3-9.66-0.34-12.97c-3.66-3.01-7.5-5.61-9.83-9.9c-5.33,0.74-8.89,3.2-6,9.52c-3.74,2.97-7.9,5.34-11.78,8.1
	c-1.82,0.83-3.82,0.43-5.72,0.22c1.28-4.58,4.43-10.88,0.42-14.79c-0.72-6.99-2.37-15.12-8.92-19.02
	c-4.09,1.84-10.05,8.49-13.99,2.95c4.55-2.35,10.15-4.03,12.26-9.22c-1.33-3.7-5.68-3.7-7.97-0.91c-5.74,1.99-11.32,4.47-17.18,6.1
	c1.97-5.62,14.31-4.09,14.03-11.91c-2.67-2.55-6.93-0.63-10.23-1.46c2.26-2.95,8.92-1.96,8.25-6.59c-2.81-1.75-7.58-1.41-8.82-4.97
	c1.23-1.17,2.62-2.15,3.96-3.19c2.38-0.88,1.23-3.37,0.93-5.18c2.62-0.74,5.28-1.34,7.89-2.13c-0.35-2.46-1.56-4.68-2.94-6.71
	c2.39-1.92,4.58-4.09,6.81-6.19c3.81,5.09,2.71-3.54,6.81-1.55c5.11,4.81-2.85,12.25,3.64,16.58c4.91,1.45,0.13-8.31,4.74-6.84
	c4.29-0.91,1.04,10.16,5.79,5.82c4.92-3.29,0.3-6.42-3.71-6.87c0.8-1.89,1.32-6.77,4.03-4.05c2.07,2.38,4.94,1.7,7.68,1.24
	c4.17,3.22-4.65,6.59-1.15,10.2c2.94,2.42,6.9-1,6.92-4.3c-0.34-6.48,0.79-12.97-0.04-19.43c-2.73-2.35-5.39-4.87-6.47-8.41
	C221.19,268.1,219.87,263.45,219.24,259.7z"/>
<path fill="#B4B4B7" d="M331.97,259.94c3.56-0.05,5.54,3.3,8.03,5.34v1.99c-2.54,0-6-0.96-5.26,2.91
	C333.92,266.73,333.2,263.27,331.97,259.94z"/>
<path fill="#5D6373" d="M149.1,271.93c2.23,1.51,6.26,4.24,3.8,7.16C150.52,277.46,148.89,274.89,149.1,271.93z"/>
<path fill="#212022" d="M314.32,276.84c-0.71-1.49-2.7-4.92,0.59-3.78c4.93,2.84,5.69,8.91,7.16,13.98c-6.4,0.22-4.82-4.2-6.71-8.25
	C315.1,278.3,314.58,277.33,314.32,276.84z"/>
<path fill="#6B7083" d="M143.81,280.08c-0.22-2.27,0.47-3.87,2.95-2.97c1.54,3.71,4.55,7,4.69,11.15c3.79,1.02,4.79,5.52,7.3,8.15
	l0.52,0.78c-1.15,1.21-2.28,2.44-3.42,3.67c-1.73,1.6-3.48,3.21-5.52,4.43c-0.11-0.46-0.34-1.39-0.46-1.85
	c1.5-1.45,6.2-2.85,4.53-5.35C150.39,292.36,148.12,285.63,143.81,280.08z"/>
<path fill="#646B7D" d="M152.9,279.09c4.91,2.29,7.05,7.92,7.05,13.11C156.59,288.45,154.13,283.97,152.9,279.09z"/>
<path fill="#4F566C" d="M157.97,278.94c3.38,3.35,8.27,5.61,10.17,10.16C162.81,288.78,160.77,282.55,157.97,278.94z"/>
<path fill="#242323" d="M71.28,285.37c1.16-1,1.96,1.62,1.55,2.52c-1.74,7-1.2,14.42-3.67,21.24c-0.86,3.27,4.13,6.84,0.71,9.71
	c-2.41-0.51-2.52-5.45-5.71-4.82c-3.27,3.35-1.38,12.65-7.92,10.85c-4.74-4.32,2.14-9.95,0.63-14.86c-0.2-3.55-2.44-8.56,1.82-10.33
	C64.2,296.43,65.35,288.5,71.28,285.37z"/>
<path fill="#414144" d="M335.31,299.2c-0.84-4.8-1.97-9.73,0.44-14.38C338.42,289.56,336.6,294.36,335.31,299.2z"/>
<path fill="#868587" d="M17.32,287.89c1.35-0.21,2.32,0.81,2.67,2.02C18.7,290.39,16.63,289.53,17.32,287.89z"/>
<path fill="#8C8B8C" d="M19.99,289.91c2.56,0.64,4.29,2.63,5.32,4.98C23.12,293.72,21.34,291.97,19.99,289.91z"/>
<path fill="#111012" d="M111.29,292.34c0.83-0.9,1.76-1.68,2.67-2.49c-2.6,5.81-3.6,12.09-4.6,18.31c-1.19,2.89,1.52,13.36,5.39,7.6
	c3.5-5.99,9.82,7.08,11.34-0.6l0.72-0.2l0.87,0.09c7.27,0.93-3.11,6.07-6.51,5.31c-1.88,2.81-3.98,9.54,1.61,6.88
	c0.99,4.99,1.52,10.07,2.51,15.07c4.54-4.14,2.19-10.76,2.02-16.16c2.99-1.11,6.92-1.39,8.24,2.24c1.46,5.44,4.39,10.9,9.53,13.48
	c2.58,1.14,1.64-2.26,2.17-3.73c4.66,1.43,9.94,1.21,13.72,4.66c5.98-3,12.16-5.59,18.64-7.31c2.83-1.9,3.62-5.71,5.51-8.45
	c2.29-2.79,6.64-2.79,7.97,0.91c-2.11,5.19-7.71,6.87-12.26,9.22c3.94,5.54,9.9-1.11,13.99-2.95c6.55,3.9,8.2,12.03,8.92,19.02
	c4.01,3.91,0.86,10.21-0.42,14.79c1.9,0.21,3.9,0.61,5.72-0.22c3.62,1.42,4.39,5.72,5.07,9.11c-0.52,0.01-1.57,0.05-2.09,0.06
	c-2.83-3.46-5.42-9.9-11.05-7.31c-0.35,0.24-1.07,0.73-1.42,0.98c-0.87,0.38-1.71,0.8-2.54,1.26c-0.32,0.18-0.96,0.55-1.28,0.73
	c-4.49-1.08-9.15-3.97-13.62-1.99c-7.23-2.9-14.77-1.18-22.03,0.32c-3.56-0.84-5.06-4.82-6.83-7.57c5.94-1.83,7.93-7.92,9.61-13.25
	c-2.59-0.22-5.19-0.16-7.5-1.4c-3.66-1.89,6.56,0.75,6.86-1.68c-5.36-0.06-10.71-0.19-16.06-0.43c-6.07,2.28-10.21-1.58-14.84-4.4
	c-2.61,3.69-6.84,4.42-11.13,3.69c-3.24-3.47-1.6-12.96-8.26-10.35c-3.62-1.33-10.06-12.6-9.97-2.74c3.51,2.05,5.76,5.16,7.09,9.09
	c4.31-6.24,9.5,1.41,8.58,6.51c1.78,6.41-7.13,5.83-7.68,10.68l-0.15,1.02c-1.01-3.9-4.27-6.78-4.09-11.1
	c-3.22-0.68-5.29,2.69-6.63,5.08c-0.12,23.28-0.24,46.57,0.08,69.84c2.27,20.41,3.9,41,2.42,61.52c-2.8,7.83,0.87,15.58,0.53,23.52
	H94.4c-0.67-3.84-2.43-7.38-6.24-3.99c-1.77-8.97-2.11-18.14-2.34-27.25c-3.43,7.73-0.18,18.24-3.55,26.53
	c-1.56,2.98-5.15,0.77-7.21-0.46c1.37-10.8,0.52-21.76-1.44-32.45c-0.56-2.96-3.16,1.67-4.82-0.22c-2.47-1.83-5.23,1.5-7.84,0.83
	c1.17-4.47,1.62-11.83-5.86-10.34c1.26-6.37-0.96-13.19,2.39-18.98c0.27-5.48-1.41-11.14,0.93-16.35
	c-2.41-2.94-2.69-6.79-3.72-10.31c-2.38,0.47-3.36,3.14-5.45,4.24c-1.89,1.11-1.46,6.74-4.14,3.6c2.08-5.4,1.42-11.28,0.74-16.9
	c-4-0.17-2.43,5.09-3.21,7.88c-2.16,8.42-1.62,17.25-2.94,25.81c-1.75,3.01-6.07,2.32-8.72,4.34c0.04-6.08-0.08-12.15-0.2-18.21
	c0.11-1.16,0.24-2.32,0.37-3.47c3.06-2.66,2.21-6.68,1.19-10.02c2.67-4.66,1.14-10.26,4.19-14.65c-0.13-6.21,1.18-14.95,8.37-16.62
	c6.96,1.06-8.61,10.51,3.79,6.87c2.13-1.21-0.39-4.24,1.89-5.26c5.43-2.83-0.81-10.26,2.71-14.37c5.08-7.69-2.36-19.56,5.65-25.43
	c4.33,2.2,2.97,6.28,0.01,9.02c3.8-2.05,3.88,2.31,4.24,4.97c-1.91,25.08-1.33,50.15-3.2,75.19c3.55-1.73,1.96-9.57,4.6-13.37
	c3.94-12.62,2.95-26.63,8.18-38.84c-0.14-8.08-5.99-17.62,0.37-24.65c3.28-3.88,1.31-9.65,4.29-13.74
	c3.76-5.11,1.95-14.91,11.14-13.93c5.35-2.44,4.07-16.55,11.29-13.29c-2.78,8.81-3.4,18.16-6.61,26.83
	c0.26,1.89,0.91,3.82,2.39,5.11c1.36-3.53,2.25-7.23,1.56-11.01C104.46,322.51,107.03,307.03,111.29,292.34z"/>
<path fill="#494D57" d="M169.29,290.06c4.78,4.52-7.44,5.12-10.02,7.13l-0.52-0.78C161.56,292.89,167.13,293.94,169.29,290.06z"/>
<path fill="#19191C" d="M155.85,300.86c9.71,2.73,17.09-6.11,25.16-9.86c1.38,2.03,2.59,4.25,2.94,6.71
	c-2.61,0.79-5.27,1.39-7.89,2.13c-8.69,0.29-18.37,3.72-21.81,12.41c-2.97,5.03-1.07,11.03-2.07,16.47c2.25,1.68,5.96,2.1,4.39,6.61
	c1.77-6.69,0.79-15.09,8.1-18.7c5.86-2.15,0.88-6.53,1.29-10.49c3.03-0.54,6.1-0.91,9.17-1.12c-1.34,1.04-2.73,2.02-3.96,3.19
	c1.24,3.56,6.01,3.22,8.82,4.97c0.67,4.63-5.99,3.64-8.25,6.59c3.3,0.83,7.56-1.09,10.23,1.46c0.28,7.82-12.06,6.29-14.03,11.91
	c5.86-1.63,11.44-4.11,17.18-6.1c-1.89,2.74-2.68,6.55-5.51,8.45c-6.48,1.72-12.66,4.31-18.64,7.31c-3.78-3.45-9.06-3.23-13.72-4.66
	c-0.53,1.47,0.41,4.87-2.17,3.73c-5.14-2.58-8.07-8.04-9.53-13.48c-1.32-3.63-5.25-3.35-8.24-2.24c0.17,5.4,2.52,12.02-2.02,16.16
	c-0.99-5-1.52-10.08-2.51-15.07c-5.59,2.66-3.49-4.07-1.61-6.88c3.4,0.76,13.78-4.38,6.51-5.31c7.38,1.99,13.71-1.66,18.39-6.97
	c1.42,0.23,2.62-0.66,3.05-1.99c0.3-0.2,0.91-0.6,1.21-0.8C152.37,304.07,154.12,302.46,155.85,300.86z"/>
<path fill="#B8C1D0" d="M154.4,298.09c1.67,2.5-3.03,3.9-4.53,5.35c-0.59-1.1-1.18-2.2-1.76-3.3
	C150.29,299.75,152.39,299.01,154.4,298.09z"/>
<path fill="#25262B" d="M154.25,312.25c3.44-8.69,13.12-12.12,21.81-12.41c0.3,1.81,1.45,4.3-0.93,5.18
	c-3.07,0.21-6.14,0.58-9.17,1.12c-0.41,3.96,4.57,8.34-1.29,10.49c-7.31,3.61-6.33,12.01-8.1,18.7c1.57-4.51-2.14-4.93-4.39-6.61
	C153.18,323.28,151.28,317.28,154.25,312.25z"/>
<path fill="#C9C9CA" d="M28.2,300.76c0.4,0.98,0.79,1.97,1.16,2.97c-0.23,2.83-0.45,5.66-0.67,8.51
	C28.41,308.41,28.25,304.58,28.2,300.76z"/>
<path fill="#5A595C" d="M29.36,303.73c0.19,0.42,0.57,1.25,0.76,1.67c-0.2,5.14-0.12,10.27-0.05,15.42
	c-2.24-1.93-0.73-5.96-1.38-8.58C28.91,309.39,29.13,306.56,29.36,303.73z"/>
<path fill="#464648" d="M332.97,308.92c-0.25-1.42-0.06-2.89,0.62-4.17C335.53,305.8,336,309.51,332.97,308.92z"/>
<path fill="#E4E2EE" d="M146.07,308.08c0.04-1.59,1.6-2.49,3.05-1.99C148.69,307.42,147.49,308.31,146.07,308.08z"/>
<path fill="#35373D" d="M119.08,309.21c1.72-2.64,4.01-0.2,5.42,1.32c4.89,2.94,10.44-0.77,15.71-0.44
	c-4.32,2.02-8.8,3.65-13.4,4.87l-0.72,0.2C123.06,313.98,117.43,313.87,119.08,309.21z"/>
<path fill="#D6E0E9" d="M140.21,310.09c1.95-0.7,3.89-1.4,5.86-2.01c-4.68,5.31-11.01,8.96-18.39,6.97l-0.87-0.09
	C131.41,313.74,135.89,312.11,140.21,310.09z"/>
<path fill="#27252B" d="M319.03,314.83c3.58,0.5,4.63,4.32,6.16,7c1.96-0.77,2.27-4.2,3.94-5.79c-0.63,2.59-0.77,5.44-2.23,7.74
	c-1.98-0.24-4.05-0.9-5.87,0.29C320.04,321.07,319.46,317.95,319.03,314.83z"/>
<path fill="#101012" d="M218.9,320.86c1.8-1.49,3.61-0.2,5.15,0.95c5.63,6.85,10.89,14.07,14.98,22.15
	c2.51,5.71,9.84,4.41,14.95,4.69c1.99,2.31-2.24,3.32-3.96,2.6c-4.39,0.55-14.34-2.01-11.05,5.68c-3.9-0.29-8.12-2.22-8.57-6.5
	c-1.07-2.88-5.86-8.74-8.01-4.05c-2.19,4.18-4.52-2.15-5.85-4.07c-3.41-3.19-12.98,3.05-13.58-3.1c7.7,2.16,9.15-8.05,16.1-8.1
	C232.08,332.63,213.18,325.29,218.9,320.86z"/>
<path fill="#232328" d="M299.93,320c0.48,0.03,1.44,0.1,1.93,0.14l0.09,0.91c4.16,21.76,6.19,43.98,8.15,66.03
	c-2.61-3.25-2.36-9.67-3-14.08c1.14-10.21-2.59-19.81-4.57-29.6c-1.55-1.82-2.27-4.37-0.34-6.22
	C303.94,331.39,300.85,325.67,299.93,320z"/>
<path fill="#1E1F22" d="M224.05,321.81c3.15,1.92,6,4.26,8.89,6.55c4.55,3.75,10.6,3.24,16.1,3.66c7.45,0.27,11.14,7.35,15.17,12.5
	c-3.52,1.06-6.95,2.45-10.23,4.13c-5.11-0.28-12.44,1.02-14.95-4.69C234.94,335.88,229.68,328.66,224.05,321.81z"/>
<path fill="#070708" d="M101.96,332.84c-0.09-9.86,6.35,1.41,9.97,2.74c6.66-2.61,5.02,6.88,8.26,10.35c4.29,0.73,8.52,0,11.13-3.69
	c4.63,2.82,8.77,6.68,14.84,4.4c0.27,5.74-1.35,13.28,3.67,17.56c3.19,1.53,1.06,4.44-0.24,6.35c-8.12-1.68-9.03,10.1-17.41,7.71
	c-4.49,4.12-11.6,0.38-15.26,5.68c-3.05,21.95-6.74,44.22-6.31,66.38c1.29,4.31,0.08,12.28,6.42,12.84
	c16.28,1.23,33.12,1.34,49.45,2.58c-2.05,1.18-5.86,2.05-2.9,4.59c2.33,8.85,16.02,16.14,9.47,26.6c0.04-2.36-0.15-4.76-1.25-6.89
	c-3.54-0.47-5.64,3.06-8.7,4.14c0.12-2.81,0.49-5.75,0.69-8.51c-6.03,6.12-6.26,15.28-6.93,23.33h-54.75
	c0.34-7.94-3.33-15.69-0.53-23.52c1.48-20.52-0.15-41.11-2.42-61.52c-0.32-23.27-0.2-46.56-0.08-69.84
	c1.34-2.39,3.41-5.76,6.63-5.08c-0.18,4.32,3.08,7.2,4.09,11.1c0.52,2-0.81,2.13-2.36,1.65c-0.18-4.02-4.34-5.09-6.56-7.8
	c1.29,28.27-2.26,56.85,2.25,84.91c0.46,4.81,10.01,0.41,5.83-3.89c0.78-5.28-4.82-12.51,1.68-15.45
	c1.74-17.32,4.69-34.42,7.32-51.6c-0.37-3.09,4.41-2.48,4.55-5.37c0.44-3.56,1.35-7.04,1.49-10.62c-5.61-0.21-8.42,6.15-14.05,7.15
	c0.55-4.85,9.46-4.27,7.68-10.68c0.92-5.1-4.27-12.75-8.58-6.51C107.72,338,105.47,334.89,101.96,332.84z"/>
<path fill="#78787D" d="M314.9,330.9c0.49-1.11,1.11-2.15,1.78-3.16c0.39,1.33,0.85,2.66,1.17,4.03
	c-4.91,13.08-0.69,27.67,0.19,41.25l-1-0.07c-0.95-7.92-3.11-15.66-3.47-23.65C313.94,343.15,314.27,337.02,314.9,330.9z"/>
<path fill="#232225" d="M279.03,329c2.24,0.99,4.54,1.99,7.06,1.42c1.52,7.19,5.21,14.56,3.21,21.87c-3.04,3.22-1.65-4.89-3.72-0.65
	c-3.95,4.17-3.07-3.61-3.62-6.5c-0.13-3.07,0.77-6.56-1.94-8.62C279.84,333.99,279.35,331.5,279.03,329z"/>
<path fill="#3C3C3E" d="M313.57,349.3c-1.22-6.1-0.83-12.57,1.33-18.4C314.27,337.02,313.94,343.15,313.57,349.3z"/>
<path fill="#B9BABE" d="M318.04,373.02c-0.88-13.58-5.1-28.17-0.19-41.25c-0.59,17.94,1.93,36.42,0.81,54.56
	c-0.2-0.54-0.61-1.63-0.82-2.17C317.85,380.42,318.05,376.74,318.04,373.02z"/>
<path fill="#1C1C1F" d="M193.3,337.15c4.89,5.81,4.62,15.97,8.7,22.88c-1.03,3.43-4.92,13.07-9.82,8.79
	c-3.83-2.7,3.56-7.1-0.41-9.68c-3.31-1.23-5.39,2.89-8.76,1.93c2.58-4.17,6.58-14.84-3.02-10.13c-3.36-1.87,2.24-11.15,7.04-7.91
	C190.75,343.8,192.1,339.83,193.3,337.15z"/>
<path fill="#151517" d="M280.02,336.52c2.71,2.06,1.81,5.55,1.94,8.62C281.21,342.28,280.55,339.42,280.02,336.52z"/>
<path fill="#262528" d="M39.13,346.13c3.89-0.34-2.15,10.8,1.74,10.8c0.71-2.64-0.37-8.46,2.96-9.87c2.02,2.78,0.39,5.85,0.28,8.83
	c2.57,4.49,1.93,10.74-1.75,14.42c-3.47,2.61,0.59,7.2-1.61,10.39c-1.16,2.14-3.59,6.8-1.78-2.67
	C32.79,369.33,39.32,356.88,39.13,346.13z"/>
<path fill="#0B0B0D" d="M146.16,346.64c5.35,0.24,10.7,0.37,16.06,0.43c-0.3,2.43-10.52-0.21-6.86,1.68c2.31,1.24,4.91,1.18,7.5,1.4
	c-1.68,5.33-3.67,11.42-9.61,13.25c1.77,2.75,3.27,6.73,6.83,7.57c7.26-1.5,14.8-3.22,22.03-0.32c4.47-1.98,9.13,0.91,13.62,1.99
	c4.69,6.57,8.57,13.58,11.21,21.2c0.36,1.13,0.72,2.26,1.09,3.39c-2.91,4-6.88,7-10.31,10.52c-1.39,1.03-0.46,3.5,1.29,3.16
	c5.37-1.06,5.35-10.06,11.35-8.73c3.67-0.97,3.18,4.11,3.42,6.52c-0.96,2.9-3.92-2.55-5.05,1.02c-1.66,3.29-10.29,5.35-6.19,9.73
	c5.11,8.5-5.07,15.49-2.44,24.27c2.71,1.38,5.79,2.63,6.06,6.2c2.37,3.36-0.39,12.38,5.88,10.39c2.23,8.98-10.39,6.06-15.04,6.59
	c-7.18,0.46-15.74-3.16-21.29,2.65c-2.22-1.33-4.42-2.75-6.97-3.37c8.66-0.49,17.41-0.64,25.94-2.38c2.81-4.47,5.12-9.44,6.31-14.58
	c-4.24-2.68-4.23,0.2-3.15,3.83c-5.93,2.85-7.1-2.32-6.11-6.17c-3.42-0.78-6.93,7.49-8.71,2.03c-1.64-5.01,6.09-2.82,6.97-6.89
	c0.82-4.2,3.02-8.4,7.88-8.52c2.1-13.79-10.46-23.93-11.27-37.15c-2.38-5.2-11.46-5.21-7.78-12.31
	c-10.85,0.67-21.47-1.75-32.17-1.68c-9.39-2.44-27.48-1.86-26.92,11.47c-4.28,6.2-1.73,14.56-5.88,21.05
	c-1.47,11.57,0.85,24.07-3.24,35.44c-0.43-22.16,3.26-44.43,6.31-66.38c3.66-5.3,10.77-1.56,15.26-5.68
	c8.38,2.39,9.29-9.39,17.41-7.71c1.3-1.91,3.43-4.82,0.24-6.35C144.81,359.92,146.43,352.38,146.16,346.64z"/>
<path fill="#030303" d="M220.82,359.71c-2.89-6.32,0.67-8.78,6-9.52c2.33,4.29,6.17,6.89,9.83,9.9c-2.96,3.31-6.46,12.4,0.34,12.97
	c10.62,2.92,9.02-15.07,1.98-16.13c-3.29-7.69,6.66-5.13,11.05-5.68c9.92,31.73,10.2,65.73,13.28,98.67
	c0.39,3.68,1.25,10.9,6.57,10.11c3.06-2.52,4.09-7.14,7.17-9.82c3.73,4.06-2.82,18.41,7.06,18.87c3.23,7.1,3.47,15.02,4.12,22.65
	c2.31,3.61,3.31-3.17,5.11-4.29c6.13,2.33,4.55-2.28,4.22-4.9c-3.05-7.99,1.08-16.36-1.77-24.38c-6.27-11.66-6.91-25.24-8.2-38.03
	c1.41-3.48,4.52-5.81,7.25-8.2c3.32,13.38,2.38,27.61,6.28,40.95c0.45,0.04,1.34,0.11,1.78,0.15c1.62-19.54,0.26-39.08-0.29-58.63
	c-0.18-2.16-1.54-3.76-3.17-5.03c1.06-1.67,5.76-7.19,5.56-2.41c0.55,11.88,3.79,23.54,2.56,35.45c-1.2,5.03,2.14,9.31,3.65,13.84
	c2.27,9.8,4.42,19.42,6.64,29.15c0.7-7.35-0.59-14.6-0.96-21.9c4.85-6.7-2.41-17.24,1.3-24.31c5.83-6.49,2.34,8.26,4.56,11.05
	c0.24,2.65,0.47,5.39,0.92,8.05c0.84,8.94-0.55,18.13,1.09,26.97c1.58,4.13,3.22,8.24,4.46,12.5c-0.31,10.4-0.15,20.82-0.26,31.24
	H170.91c-0.18-4.15-0.42-8.56,2.14-12.07c6.55-10.46-7.14-17.75-9.47-26.6c-2.96-2.54,0.85-3.41,2.9-4.59
	c0.56,0.11,1.7,0.33,2.26,0.44c2.55,0.62,4.75,2.04,6.97,3.37c5.55-5.81,14.11-2.19,21.29-2.65c4.65-0.53,17.27,2.39,15.04-6.59
	c-6.27,1.99-3.51-7.03-5.88-10.39c-0.27-3.57-3.35-4.82-6.06-6.2c-2.63-8.78,7.55-15.77,2.44-24.27c-4.1-4.38,4.53-6.44,6.19-9.73
	c1.13-3.57,4.09,1.88,5.05-1.02c-0.24-2.41,0.25-7.49-3.42-6.52c-6-1.33-5.98,7.67-11.35,8.73c-1.75,0.34-2.68-2.13-1.29-3.16
	c3.43-3.52,7.4-6.52,10.31-10.52c0.49,0.15,1.46,0.47,1.95,0.62c6.94,2.47,15.7-6.77,10.12-12.69l-0.71-0.6
	c-0.71-0.61-1.42-1.21-2.12-1.82c-0.8-1.32-1.64-2.62-2.46-3.92c-0.18-0.48-0.53-1.43-0.7-1.9c-0.68-3.39-1.45-7.69-5.07-9.11
	C212.92,365.05,217.08,362.68,220.82,359.71z"/>
<path fill="#010102" d="M109.95,359.12c5.63-1,8.44-7.36,14.05-7.15c-0.14,3.58-1.05,7.06-1.49,10.62
	c-0.14,2.89-4.92,2.28-4.55,5.37c-2.63,17.18-5.58,34.28-7.32,51.6c-6.5,2.94-0.9,10.17-1.68,15.45c4.18,4.3-5.37,8.7-5.83,3.89
	c-4.51-28.06-0.96-56.64-2.25-84.91c2.22,2.71,6.38,3.78,6.56,7.8c1.55,0.48,2.88,0.35,2.36-1.65L109.95,359.12z"/>
<path fill="#3E3F42" d="M177.05,359.79c2.35,1.31,3.27,3.84,3.86,6.31C177.72,366.64,174.7,363.46,177.05,359.79z"/>
<path fill="#64625D" d="M200.97,369.67c5.63-2.59,8.22,3.85,11.05,7.31c-3.41,3.48,1.62,5.08,0,0c0.52-0.01,1.57-0.05,2.09-0.06
	c0.17,0.47,0.52,1.42,0.7,1.9c-4.13,3.33-1.24,8.38,2.46,3.92c0.7,0.61,1.41,1.21,2.12,1.82c-3.2,0.82-3.82,6.24-7.38,4.91
	c-0.64-1.67-0.6-5.55-3.28-4.84c-2.04,0.84-1.64-1.11-1.65-2.46c2.67-4.37-3.63-3.56-5.67-5.55c-2-2.07,1.47-0.7,2.61-0.82
	c0.05-12.82,0.59-0.49-2.91-2.04c-1.41-0.53-2.72-1.27-4.1-1.85c0.83-0.46,1.67-0.88,2.54-1.26
	C200.29,373.53,203.79,370.91,200.97,369.67z"/>
<path fill="#DBDBD6" d="M199.55,370.65c0.35-0.25,1.07-0.74,1.42-0.98C203.79,370.91,200.29,373.53,199.55,370.65z"/>
<path fill="#CECDC5" d="M201.11,373.76c3.5,1.55,2.96-10.78,2.91,2.04c-1.14,0.12-4.61-1.25-2.61,0.82
	c2.04,1.99,8.34,1.18,5.67,5.55c-5.31-0.89-1.38,4.74-0.67,7.46c2.22,2.7,8.62,2.24,5.39,7.06c-0.31,0.19-0.92,0.58-1.22,0.78
	c1.04-2.87-0.65-5.56-3.64-3.63c-2.64-7.62-6.52-14.63-11.21-21.2c0.32-0.18,0.96-0.55,1.28-0.73
	C198.39,372.49,199.7,373.23,201.11,373.76z"/>
<path fill="#37373F" d="M317.04,372.95l1,0.07c0.01,3.72-0.19,7.4-0.2,11.14C317.17,380.45,316.91,376.71,317.04,372.95z"/>
<path fill="#4B4B4D" d="M26.34,395.11c3.45-6.13-1.73-15.47,3.51-20.43c0.88,16.17-1.14,32.55,1.3,48.62
	c-0.13,1.15-0.26,2.31-0.37,3.47c-1.61,17.42-0.59,34.98-0.56,52.46C29.88,489.14,30,499.07,30,509h-4.08
	c0.09-1.93,0.19-3.86,0.32-5.77c0.95-14.08,1.64-28.51-0.03-42.49c-0.68-9.79-2.26-20.21,0.73-29.78c0.67-8.7-2.96-17.93,0.72-26.26
	C28.97,401.5,26.85,398.22,26.34,395.11z"/>
<path fill="#C4B3A3" d="M212.02,376.98C208.61,380.46,213.64,382.06,212.02,376.98z"/>
<path fill="#18181A" d="M273.09,378.1c3.05,0.03,2.41,4.73,4.26,6.64c8.19,10.18,4.93,24.13,10.23,35.39
	c1.29,12.79,1.93,26.37,8.2,38.03c2.85,8.02-1.28,16.39,1.77,24.38c0.33,2.62,1.91,7.23-4.22,4.9c-1.8,1.12-2.8,7.9-5.11,4.29
	c-0.65-7.63-0.89-15.55-4.12-22.65c-5.02-9.08-2.1-19.82-2.54-29.71c-2.44-13.57-2.55-27.59-7.23-40.68
	C273.78,391.95,271.25,384.77,273.09,378.1z"/>
<path fill="#A8A8A2" d="M217.27,382.74c-3.7,4.46-6.59-0.59-2.46-3.92C215.63,380.12,216.47,381.42,217.27,382.74z"/>
<path fill="#131214" d="M119.73,393.83c-0.56-13.33,17.53-13.91,26.92-11.47c10.7-0.07,21.32,2.35,32.17,1.68
	c-3.68,7.1,5.4,7.11,7.78,12.31c0.81,13.22,13.37,23.36,11.27,37.15c-4.86,0.12-7.06,4.32-7.88,8.52c-0.88,4.07-8.61,1.88-6.97,6.89
	c1.78,5.46,5.29-2.81,8.71-2.03c-0.99,3.85,0.18,9.02,6.11,6.17c-1.08-3.63-1.09-6.51,3.15-3.83c-1.19,5.14-3.5,10.11-6.31,14.58
	c-8.53,1.74-17.28,1.89-25.94,2.38c6.96-7.03,0.92-20.27,8.71-27.71c1.66-4.45,9.7-6.33,5.78-11.52c9.48-9.26-1.47-21.13-4.45-30.73
	c-8.49-8.42-22.56-11.74-33.79-7.28c-6.05-2.87-12.48,0.28-18.77-0.83c-4.26,12.09,2.1,26.57-7.02,37.04
	c-1.48,3.36-5.75,7.17-3.36,11.06c3.35,8.77-8.39,20.11,1.19,26.95c-6.34-0.56-5.13-8.53-6.42-12.84
	c4.09-11.37,1.77-23.87,3.24-35.44C118,408.39,115.45,400.03,119.73,393.83z"/>
<path fill="#9A9995" d="M206.41,389.63c-0.71-2.72-4.64-8.35,0.67-7.46c0.01,1.35-0.39,3.3,1.65,2.46c-3.2,2.66-0.4,6.81,3.28,4.84
	c3.56,1.33,4.18-4.09,7.38-4.91l0.71,0.6c-2.11,2.48-6.13,5.55-1.32,7.59c-2.51,0.97-4.8,2.37-6.98,3.94
	C215.03,391.87,208.63,392.33,206.41,389.63z"/>
<path fill="#E5E6E1" d="M208.73,384.63c2.68-0.71,2.64,3.17,3.28,4.84C208.33,391.44,205.53,387.29,208.73,384.63z"/>
<path fill="#474646" d="M220.1,385.16c5.58,5.92-3.18,15.16-10.12,12.69l0.6-0.38c0.3-0.2,0.91-0.59,1.22-0.78
	c2.18-1.57,4.47-2.97,6.98-3.94C213.97,390.71,217.99,387.64,220.1,385.16z"/>
<path fill="#1A1A1D" d="M126.22,388.11c6.29,1.11,12.72-2.04,18.77,0.83c11.23-4.46,25.3-1.14,33.79,7.28
	c2.98,9.6,13.93,21.47,4.45,30.73c3.92,5.19-4.12,7.07-5.78,11.52c-7.79,7.44-1.75,20.68-8.71,27.71c-0.56-0.11-1.7-0.33-2.26-0.44
	c-16.33-1.24-33.17-1.35-49.45-2.58c-9.58-6.84,2.16-18.18-1.19-26.95c-2.39-3.89,1.88-7.7,3.36-11.06
	C128.32,414.68,121.96,400.2,126.22,388.11z"/>
<path fill="#75767A" d="M319.21,387.91c0.16,1.56,0.46,4.67,0.61,6.23C319.67,392.58,319.37,389.47,319.21,387.91z"/>
<path fill="#212123" d="M159.32,389.3c6.35-0.23,11.76,5.13,15.94,9.41c2.25,9.12-0.34,18.32-5.11,26.35
	c1.83,11.29,0.37,22.7-0.27,34.02c-2.66-0.32-5.23-1.99-5.18-4.93c-4.17-1.28,0.14,6.63-3.95,7.68c-5.49-0.85-11.68,1.21-16.71-1.91
	c2.78-5.61,10.88-10.53,7.66-17.61c-2.29-3.9-7.16,0.03-9.73,1.7c-2.08-0.59-3.6-2.96-5.75-2.87c-2.98,1.45,1.19,5.1-1.39,6.68
	c-1.07,1.62-4.46,1.88-3.95-0.8c0.17-5.46-10.98-6.35-7.17-12.32c4.5-2.26,7.29-11.21,12.91-6.04c2.29-4.17,8.16-3.62,10.43-7.53
	c-2.18-1.25-6.24-1.46-4.99-4.94c3.86-1.09,8.04-1.53,11.82,0.03c0.8,2.54-2.74,1.43-3.82,2.96c-1.29,4.88,6.2,3.37,7.22,7.64
	c3.87,1.86,3.4-3.73,0.97-5.07c-5.13-3.74-0.43-15.12,6.77-11.89c-0.4-3.81-0.99-8.69-5.66-9.33
	C155.67,398.1,152.32,389.47,159.32,389.3z"/>
<path fill="#444444" d="M206.94,393.84c2.99-1.93,4.68,0.76,3.64,3.63l-0.6,0.38c-0.49-0.15-1.46-0.47-1.95-0.62
	C207.66,396.1,207.3,394.97,206.94,393.84z"/>
<path fill="#67666D" d="M320.16,395.88c1.24,1.03,1.28,2.73,0.78,4.15C319.5,399.11,319.62,397.28,320.16,395.88z"/>
<path fill="#463F33" d="M220.08,400.92c-0.18-1.49-2.45-4.95,0.62-3.75c6.96,21.46,15.85,42.31,22.23,63.95l-0.87-0.18
	C234.07,441.91,227.09,420.92,220.08,400.92z"/>
<path fill="#9FA0A3" d="M320.94,400.03c2.08,1.58,2.36,3.93,0.84,7.05C320.18,405.12,319.91,402.77,320.94,400.03z"/>
<path fill="#070709" d="M42.64,414.83c0.78-2.79-0.79-8.05,3.21-7.88c0.68,5.62,1.34,11.5-0.74,16.9c2.68,3.14,2.25-2.49,4.14-3.6
	c2.09-1.1,3.07-3.77,5.45-4.24c1.03,3.52,1.31,7.37,3.72,10.31c-2.34,5.21-0.66,10.87-0.93,16.35c-3.35,5.79-1.13,12.61-2.39,18.98
	c7.48-1.49,7.03,5.87,5.86,10.34c2.61,0.67,5.37-2.66,7.84-0.83c1.66,1.89,4.26-2.74,4.82,0.22c1.96,10.69,2.81,21.65,1.44,32.45
	c2.06,1.23,5.65,3.44,7.21,0.46c3.37-8.29,0.12-18.8,3.55-26.53c0.23,9.11,0.57,18.28,2.34,27.25c3.81-3.39,5.57,0.15,6.24,3.99H30
	c0-9.93-0.12-19.86,0.22-29.77c1.44-11.37,0.58-22.84,0.76-34.25c2.65-2.02,6.97-1.33,8.72-4.34
	C41.02,432.08,40.48,423.25,42.64,414.83z"/>
<path fill="#626268" d="M323.23,410.73c0.22,0.3,0.65,0.89,0.86,1.19c0.03,2.89,0.03,5.88,0.21,8.81
	c-0.18,5.84-0.42,11.7-0.64,17.56c-0.45-2.66-0.68-5.4-0.92-8.05C323.01,423.74,323.09,417.22,323.23,410.73z"/>
<path fill="#C6C6CA" d="M324.09,411.92c5.16,5.61,3.37,14.64,1.2,21.34c-0.17-4.21-0.48-8.38-0.99-12.53
	C324.12,417.8,324.12,414.81,324.09,411.92z"/>
<path fill="#A3A3A5" d="M324.3,420.73c0.51,4.15,0.82,8.32,0.99,12.53c-0.45,10.66-0.21,21.33-0.54,32
	c-1.64-8.84-0.25-18.03-1.09-26.97C323.88,432.43,324.12,426.57,324.3,420.73z"/>
<path fill="#17171B" d="M309.06,421.76c2.48,1.62,5.22,4.84,5.75,0.03c0.76,7.23,1.12,14.49,2.07,21.71
	c0.37,7.3,1.66,14.55,0.96,21.9c-2.22-9.73-4.37-19.35-6.64-29.15C310.53,431.41,309.54,426.63,309.06,421.76z"/>
<path fill="#28272A" d="M30.22,479.23c-0.03-17.48-1.05-35.04,0.56-52.46c0.12,6.06,0.24,12.13,0.2,18.21
	C30.8,456.39,31.66,467.86,30.22,479.23z"/>
<path fill="#242325" d="M94,451.96c11.63,7.52-4.33,23.8,3.82,34.23c2.52,2.89-0.47,6.61-0.66,9.91c-0.1,2.17,3.63,6.3-0.93,5.75
	c-5.19-5.3-2.31-14.24-3.28-20.85C91.05,470.81,96.82,462.1,94,451.96z"/>
<path fill="#BABABB" d="M26.21,460.74c1.67,13.98,0.98,28.41,0.03,42.49C25.85,489.06,25.92,474.89,26.21,460.74z"/>
<path fill="#221F19" d="M242.06,460.94l0.87,0.18c5.73,13.68,10.33,27.87,14.89,42c1.44,4.36-3.27-0.64-2.48-2.34
	C251.7,487.28,245.65,474.32,242.06,460.94z"/>
<path fill="#17171A" d="M121.17,472.09c5.13,1.45,3.48,9.56,1.3,13.33c-3.01,1.52,1.56,5.72-1.74,7.31
	c-2.56,1.16-3.51,5.37-6.48,5.09c-4.48-3.28-1.23-10.18,1.88-13.63C117.45,479.96,120.49,476.64,121.17,472.09z"/>
<path fill="#3E3F46" d="M329.21,477.76c0.26,0.5,0.78,1.51,1.04,2.01c0.47,6.7-1.74,13.88,0.59,20.37l0.26,0.77
	c-0.49,2.68-1.03,5.36-1.25,8.09h-0.9C329.06,498.58,328.9,488.16,329.21,477.76z"/>
<path fill="#808190" d="M330.25,479.77c0.71,1.31,1.41,2.63,1.98,4.02c-0.59,5.44-1.28,10.85-1.39,16.35
	C328.51,493.65,330.72,486.47,330.25,479.77z"/>
<path fill="#A8A8B4" d="M332.23,483.79c0.7,1.68,1.34,3.4,1.89,5.15c-0.77,6.65-1.99,13.5-0.06,20.06h-1.04
	c-0.65-2.72-0.93-5.5-1.92-8.09l-0.26-0.77C330.95,494.64,331.64,489.23,332.23,483.79z"/>
<path fill="#1A1A1C" d="M156.86,509c0.67-8.05,0.9-17.21,6.93-23.33c-0.2,2.76-0.57,5.7-0.69,8.51c3.06-1.08,5.16-4.61,8.7-4.14
	c1.1,2.13,1.29,4.53,1.25,6.89c-2.56,3.51-2.32,7.92-2.14,12.07H156.86z"/>
<path fill="#D5D5DB" d="M334.12,488.94c0.41,6.73-0.27,13.64,2.21,20.06h-2.27C332.13,502.44,333.35,495.59,334.12,488.94z"/>
<path fill="#78797E" d="M331.1,500.91c0.99,2.59,1.27,5.37,1.92,8.09h-3.17C330.07,506.27,330.61,503.59,331.1,500.91z"/>
</svg>
